<?xml version="1.0" encoding="UTF-8" standalone="no"?>
<svg
   id="Flat"
   viewBox="0 0 256 256"
   version="1.1"
   sodipodi:docname="carrinho5.svg"
   inkscape:version="1.2-beta (1b65182ce9, 2022-04-05)"
   xmlns:inkscape="http://www.inkscape.org/namespaces/inkscape"
   xmlns:sodipodi="http://sodipodi.sourceforge.net/DTD/sodipodi-0.dtd"
   xmlns="http://www.w3.org/2000/svg"
   xmlns:svg="http://www.w3.org/2000/svg">
  <defs
     id="defs34754" />
  <sodipodi:namedview
     id="namedview34752"
     pagecolor="#ffffff"
     bordercolor="#000000"
     borderopacity="0.25"
     inkscape:pageshadow="2"
     inkscape:pageopacity="0.0"
     inkscape:pagecheckerboard="0"
     inkscape:deskcolor="#d1d1d1"
     showgrid="false"
     inkscape:zoom="3.0625"
     inkscape:cx="127.83673"
     inkscape:cy="128"
     inkscape:window-width="1920"
     inkscape:window-height="1001"
     inkscape:window-x="-9"
     inkscape:window-y="-9"
     inkscape:window-maximized="1"
     inkscape:current-layer="Flat" />
  <path
     d="M88,216a16,16,0,1,1-16-16A16.00016,16.00016,0,0,1,88,216Zm104-16a16,16,0,1,0,16,16A16.00016,16.00016,0,0,0,192,200ZM226.69922,61.74805A15.95974,15.95974,0,0,0,214.415,56H46.69531L41.79492,29.12988A15.995,15.995,0,0,0,26.05371,16H8A8,8,0,0,0,8,32H26.05469L32.044,64.84717a8.04283,8.04283,0,0,0,.21679,1.18554L51.37793,170.87012A15.994,15.994,0,0,0,67.11816,184H196.9707a15.99217,15.99217,0,0,0,15.74219-13.13965l17.44434-95.99951A15.957,15.957,0,0,0,226.69922,61.74805Z"
     id="path34749" />
  <path
     style="fill:#2c2d65;fill-opacity:1;stroke-width:0.326531"
     d="m 66.285714,183.78925 c -2.170609,-0.25018 -4.641975,-0.88154 -5.877551,-1.50156 -3.655422,-1.83429 -6.665593,-5.08184 -7.989025,-8.61902 -0.557022,-1.48878 -7.326563,-38.12263 -26.012915,-140.770711 l -0.193189,-1.061224 -9.841211,-0.0072 C 7.178304,31.822864 6.4339056,31.778616 5.0612245,31.157253 4.2530612,30.791426 3.1691706,30.096694 2.6525786,29.613404 1.3252479,28.371638 0.169645,25.759057 0.169645,24 c 0,-1.759057 1.1556029,-4.371638 2.4829336,-5.613404 0.516592,-0.48329 1.6004826,-1.178022 2.4086459,-1.543849 1.3804852,-0.624896 2.1122495,-0.665573 12.0946615,-0.67231 11.754538,-0.0079 12.834989,0.12638 16.441005,2.04383 2.748128,1.461278 5.126035,3.944853 6.535311,6.825726 1.049502,2.145411 1.401767,3.668404 3.460213,14.960007 1.260467,6.914286 2.447624,13.342857 2.638125,14.285714 L 46.576914,56 130.22723,56.01009 c 52.18856,0.0063 84.5701,0.129423 86.09582,0.327389 5.28293,0.685473 9.99797,4.10048 12.24375,8.867922 1.582,3.358335 1.94266,6.023353 1.32935,9.822935 -1.87757,11.631971 -17.61937,97.076764 -18.14177,98.471594 -1.50097,4.00769 -5.17402,7.74233 -9.0356,9.18714 -1.01645,0.3803 -2.8889,0.82675 -4.16099,0.99211 -2.11813,0.27534 -129.915432,0.38169 -132.272076,0.11007 z"
     id="path35845" />
  <path
     style="fill:#2c2d65;fill-opacity:1;stroke-width:0.326531"
     d="m 70.367347,231.65261 c -2.592051,-0.26723 -4.162058,-0.78805 -6.37387,-2.1144 -2.487707,-1.49179 -3.977857,-2.94419 -5.359254,-5.22349 -3.214325,-5.30361 -3.120058,-11.7929 0.246984,-17.00237 4.186679,-6.47761 12.794824,-8.90829 19.720112,-5.56838 4.251956,2.05063 6.954071,5.11896 8.439833,9.58367 0.602997,1.81201 0.691166,2.6617 0.566667,5.46102 -0.132394,2.97684 -0.267408,3.56389 -1.32311,5.75303 -1.464327,3.03647 -3.097745,4.96172 -5.559596,6.55289 -3.166132,2.04637 -6.745733,2.93041 -10.357766,2.55803 z"
     id="path49578" />
  <path
     style="fill:#2c2d65;fill-opacity:1;stroke-width:0.326531"
     d="m 187.18758,231.03939 c -5.0346,-1.60943 -9.15717,-6.04897 -10.53724,-11.34741 -2.51396,-9.65175 5.1765,-19.3981 15.30627,-19.3981 4.67386,0 8.2915,1.58892 11.61248,5.10036 7.80265,8.25015 4.19558,21.946 -6.74246,25.60077 -2.63099,0.8791 -6.96547,0.89906 -9.63905,0.0444 z"
     id="path49580" />
  <path
     style="fill:#f3a268;fill-opacity:1;stroke:#441868;stroke-width:0.205388;stroke-dasharray:none;stroke-opacity:1"
     d="m 63.232666,183.00889 c -3.727745,-0.9764 -6.443598,-2.8566 -8.709015,-6.0293 -0.769411,-1.07755 -1.633809,-2.69388 -1.920889,-3.59183 C 51.860026,171.06453 46.323396,141.29903 31.071348,57.632653 L 26.398617,32 16.62788,31.750859 C 11.253975,31.613832 6.3428571,31.360843 5.7142857,31.188661 2.9389184,30.428418 0.48979592,27.058536 0.48979592,24 c 0,-2.924264 2.04168418,-5.911634 4.84222658,-7.085094 1.667778,-0.698818 21.9869545,-0.642161 24.6907365,0.06885 5.85215,1.538928 10.118952,6.386461 11.492836,13.057063 0.295909,1.436735 1.508607,7.828572 2.694887,14.204082 l 2.156865,11.591837 85.551023,0.332068 85.55102,0.332069 1.8543,0.696271 c 5.16832,1.94065 8.83673,5.971157 10.24276,11.253783 0.89131,3.34879 1.06746,2.105156 -5.10471,36.038871 -10.1141,55.60586 -12.60774,68.53143 -13.60355,70.513 -0.98212,1.9543 -3.85553,5.03437 -5.95108,6.37908 -0.84405,0.54163 -2.68429,1.27881 -4.08943,1.63818 -2.51525,0.64329 -3.58143,0.65313 -68.86991,0.63543 -64.375835,-0.0174 -66.385301,-0.0364 -68.715104,-0.6466 z"
     id="path68033" />
  <path
     style="fill:#f3a268;fill-opacity:1;stroke:#441868;stroke-width:0.205388;stroke-dasharray:none;stroke-opacity:1"
     d="M 65.58577,183.02052 C 59.084852,182.45195 53.979131,177.91047 52.446785,171.33354 51.317257,166.48553 45.865456,137.13613 32.369199,63.247223 29.242845,46.131152 26.607161,32.049338 26.512124,31.954301 26.417086,31.859263 22.249714,31.650575 17.251297,31.490549 5.4031794,31.111228 5.3070178,31.097157 3.5604362,29.487214 1.0194372,27.145003 0.19118402,24.174972 1.3215789,21.4589 2.0160058,19.790356 4.3137378,17.526564 5.7052483,17.139982 7.1728748,16.732254 26.485245,16.719078 28.958013,17.124118 c 4.169278,0.682928 8.373491,3.863197 10.391809,7.860866 1.47682,2.925133 1.378126,2.51634 4.216343,17.463996 l 2.542031,13.387755 11.721411,0.201685 c 6.446778,0.110925 44.929573,0.30188 85.517333,0.424346 l 73.79592,0.222667 1.79592,0.694867 c 6.79598,2.629467 11.2101,8.987991 10.66953,15.369421 -0.31837,3.758439 -6.69996,39.445079 -13.9674,78.107419 -4.5593,24.25526 -4.59201,24.36548 -8.34423,28.1177 -2.43347,2.43347 -5.138,3.66927 -8.89577,4.06481 -3.2892,0.34622 -128.844557,0.32814 -132.81514,-0.0191 z"
     id="path68035" />
  <path
     style="fill:#f3a268;fill-opacity:1;stroke:#441868;stroke-width:0.205388;stroke-dasharray:none;stroke-opacity:1"
     d="m 189.85977,231.32596 c -7.27429,-0.6262 -13.44997,-7.75338 -13.41406,-15.4808 0.0516,-11.09699 12.01597,-18.64371 22.0849,-13.93037 2.33547,1.09324 5.25103,3.67345 6.69684,5.92655 3.86938,6.02991 2.74694,14.28276 -2.64158,19.42254 -3.39457,3.23787 -7.41037,4.51969 -12.7261,4.06208 z"
     id="path68037" />
  <path
     style="fill:#00d235;fill-opacity:1;stroke:#441868;stroke-width:0.205388;stroke-dasharray:none;stroke-opacity:1"
     d="m 68.480408,231.17631 c -7.533699,-1.6361 -13.08688,-9.72275 -11.855124,-17.26367 0.430123,-2.63325 1.811328,-5.83769 3.357865,-7.79035 3.230259,-4.07854 9.407347,-6.42915 14.465831,-5.50479 2.372462,0.43353 6.041218,2.18573 7.883952,3.76537 1.736723,1.48877 3.427144,4.0573 4.354218,6.61607 0.637362,1.75914 0.714423,2.49544 0.598056,5.71428 -0.125583,3.47377 -0.204055,3.83247 -1.310947,5.99239 -2.33978,4.5657 -6.065337,7.45353 -10.951477,8.48895 -2.671611,0.56614 -3.866786,0.56281 -6.542374,-0.0182 z"
     id="path68039" />
  <path
     style="fill:#00d235;fill-opacity:1;stroke:#441868;stroke-width:0.205388;stroke-dasharray:none;stroke-opacity:1"
     d="m 67.102041,182.69958 c -4.363115,-0.26112 -6.304196,-0.89588 -9.027811,-2.95223 -1.97871,-1.49394 -4.033779,-4.38521 -4.825074,-6.78838 C 52.605179,171.00322 51.958413,167.82437 48.984852,152 46.649087,139.56978 44.268225,126.65832 33.329737,67.102041 30.542506,51.926531 27.937204,37.77967 27.540176,35.664573 26.91761,32.347958 26.725527,31.799139 26.143848,31.674992 25.772895,31.595819 21.334998,31.373928 16.281855,31.181898 11.228712,30.989869 6.6217838,30.697232 6.0442364,30.531593 3.2264576,29.723465 0.93202949,26.308999 1.2166082,23.347331 1.4046347,21.390503 2.6902006,19.384067 4.541295,18.158357 l 1.2870629,-0.852235 10.5541301,-0.09838 c 11.406885,-0.10633 13.207323,0.0576 16.107308,1.466575 2.260274,1.098168 5.522423,4.320052 6.673032,6.59067 1.197499,2.363148 1.724829,4.583892 4.235543,17.837055 1.190782,6.285714 2.232947,11.736914 2.315918,12.113776 0.136764,0.621176 0.453169,0.705012 3.386122,0.897221 1.779396,0.116611 40.390348,0.365695 85.802119,0.553522 l 82.56686,0.341502 2.66133,1.285469 c 5.44587,2.63044 9.23868,8.085666 9.25316,13.308859 0.007,2.4416 -5.4009,33.101739 -13.07964,74.158279 -5.30719,28.3764 -5.47178,29.00044 -8.49088,32.1927 -2.01841,2.13416 -4.07552,3.4928 -6.50724,4.29779 -1.71085,0.56635 -4.8426,0.59637 -66.12245,0.63383 -35.379588,0.0216 -66.016323,-0.0618 -68.081629,-0.18541 z"
     id="path68248" />
  <path
     style="fill:#00d235;fill-opacity:1;stroke:#441868;stroke-width:0.205388;stroke-dasharray:none;stroke-opacity:1"
     d="m 187.195,230.50129 c -3.72839,-1.1469 -7.82879,-5.1309 -9.43889,-9.17093 -0.62866,-1.5774 -0.75952,-2.51444 -0.76723,-5.49363 -0.009,-3.46597 0.0323,-3.67896 1.17813,-6.07828 2.92886,-6.133 9.85692,-9.89326 16.1944,-8.78964 5.90677,1.02862 11.18583,5.87687 12.47087,11.45316 1.74731,7.58234 -2.86114,15.70975 -10.20831,18.00326 -2.33101,0.72765 -7.18352,0.76679 -9.42897,0.0761 z"
     id="path68250" />
</svg>
