<?xml version="1.0" encoding="UTF-8" standalone="no"?>
<svg
   id="Flat"
   viewBox="0 0 256 256"
   version="1.1"
   sodipodi:docname="carrinho4.svg"
   inkscape:version="1.2-beta (1b65182ce9, 2022-04-05)"
   xmlns:inkscape="http://www.inkscape.org/namespaces/inkscape"
   xmlns:sodipodi="http://sodipodi.sourceforge.net/DTD/sodipodi-0.dtd"
   xmlns="http://www.w3.org/2000/svg"
   xmlns:svg="http://www.w3.org/2000/svg">
  <defs
     id="defs34754" />
  <sodipodi:namedview
     id="namedview34752"
     pagecolor="#ffffff"
     bordercolor="#000000"
     borderopacity="0.25"
     inkscape:pageshadow="2"
     inkscape:pageopacity="0.0"
     inkscape:pagecheckerboard="0"
     inkscape:deskcolor="#d1d1d1"
     showgrid="false"
     inkscape:zoom="3.0625"
     inkscape:cx="127.83673"
     inkscape:cy="128"
     inkscape:window-width="1920"
     inkscape:window-height="1001"
     inkscape:window-x="-9"
     inkscape:window-y="-9"
     inkscape:window-maximized="1"
     inkscape:current-layer="Flat" />
  <path
     d="M88,216a16,16,0,1,1-16-16A16.00016,16.00016,0,0,1,88,216Zm104-16a16,16,0,1,0,16,16A16.00016,16.00016,0,0,0,192,200ZM226.69922,61.74805A15.95974,15.95974,0,0,0,214.415,56H46.69531L41.79492,29.12988A15.995,15.995,0,0,0,26.05371,16H8A8,8,0,0,0,8,32H26.05469L32.044,64.84717a8.04283,8.04283,0,0,0,.21679,1.18554L51.37793,170.87012A15.994,15.994,0,0,0,67.11816,184H196.9707a15.99217,15.99217,0,0,0,15.74219-13.13965l17.44434-95.99951A15.957,15.957,0,0,0,226.69922,61.74805Z"
     id="path34749" />
  <path
     style="fill:#2c2d65;fill-opacity:1;stroke-width:0.326531"
     d="m 66.285714,183.78925 c -2.170609,-0.25018 -4.641975,-0.88154 -5.877551,-1.50156 -3.655422,-1.83429 -6.665593,-5.08184 -7.989025,-8.61902 -0.557022,-1.48878 -7.326563,-38.12263 -26.012915,-140.770711 l -0.193189,-1.061224 -9.841211,-0.0072 C 7.178304,31.822864 6.4339056,31.778616 5.0612245,31.157253 4.2530612,30.791426 3.1691706,30.096694 2.6525786,29.613404 1.3252479,28.371638 0.169645,25.759057 0.169645,24 c 0,-1.759057 1.1556029,-4.371638 2.4829336,-5.613404 0.516592,-0.48329 1.6004826,-1.178022 2.4086459,-1.543849 1.3804852,-0.624896 2.1122495,-0.665573 12.0946615,-0.67231 11.754538,-0.0079 12.834989,0.12638 16.441005,2.04383 2.748128,1.461278 5.126035,3.944853 6.535311,6.825726 1.049502,2.145411 1.401767,3.668404 3.460213,14.960007 1.260467,6.914286 2.447624,13.342857 2.638125,14.285714 L 46.576914,56 130.22723,56.01009 c 52.18856,0.0063 84.5701,0.129423 86.09582,0.327389 5.28293,0.685473 9.99797,4.10048 12.24375,8.867922 1.582,3.358335 1.94266,6.023353 1.32935,9.822935 -1.87757,11.631971 -17.61937,97.076764 -18.14177,98.471594 -1.50097,4.00769 -5.17402,7.74233 -9.0356,9.18714 -1.01645,0.3803 -2.8889,0.82675 -4.16099,0.99211 -2.11813,0.27534 -129.915432,0.38169 -132.272076,0.11007 z"
     id="path35845" />
  <path
     style="fill:#2c2d65;fill-opacity:1;stroke-width:0.326531"
     d="m 70.367347,231.65261 c -2.592051,-0.26723 -4.162058,-0.78805 -6.37387,-2.1144 -2.487707,-1.49179 -3.977857,-2.94419 -5.359254,-5.22349 -3.214325,-5.30361 -3.120058,-11.7929 0.246984,-17.00237 4.186679,-6.47761 12.794824,-8.90829 19.720112,-5.56838 4.251956,2.05063 6.954071,5.11896 8.439833,9.58367 0.602997,1.81201 0.691166,2.6617 0.566667,5.46102 -0.132394,2.97684 -0.267408,3.56389 -1.32311,5.75303 -1.464327,3.03647 -3.097745,4.96172 -5.559596,6.55289 -3.166132,2.04637 -6.745733,2.93041 -10.357766,2.55803 z"
     id="path49578" />
  <path
     style="fill:#2c2d65;fill-opacity:1;stroke-width:0.326531"
     d="m 187.18758,231.03939 c -5.0346,-1.60943 -9.15717,-6.04897 -10.53724,-11.34741 -2.51396,-9.65175 5.1765,-19.3981 15.30627,-19.3981 4.67386,0 8.2915,1.58892 11.61248,5.10036 7.80265,8.25015 4.19558,21.946 -6.74246,25.60077 -2.63099,0.8791 -6.96547,0.89906 -9.63905,0.0444 z"
     id="path49580" />
</svg>
