<?xml version="1.0" encoding="UTF-8" standalone="no"?>
<!-- Generator: Adobe Illustrator 13.0.0, SVG Export Plug-In . SVG Version: 6.00 Build 14948)  -->

<svg
   version="1.1"
   id="svg2"
   inkscape:version="1.2-beta (1b65182ce9, 2022-04-05)"
   sodipodi:docname="carrinho 2.svg"
   x="0px"
   y="0px"
   width="1200px"
   height="1200px"
   viewBox="0 0 1200 1200"
   enable-background="new 0 0 1200 1200"
   xml:space="preserve"
   xmlns:inkscape="http://www.inkscape.org/namespaces/inkscape"
   xmlns:sodipodi="http://sodipodi.sourceforge.net/DTD/sodipodi-0.dtd"
   xmlns="http://www.w3.org/2000/svg"
   xmlns:svg="http://www.w3.org/2000/svg"><defs
   id="defs6" /><sodipodi:namedview
   id="namedview4"
   pagecolor="#ffffff"
   bordercolor="#000000"
   borderopacity="0.25"
   inkscape:pageshadow="2"
   inkscape:pageopacity="0.0"
   inkscape:pagecheckerboard="0"
   inkscape:deskcolor="#d1d1d1"
   showgrid="false"
   inkscape:zoom="0.67833333"
   inkscape:cx="506.38821"
   inkscape:cy="600"
   inkscape:window-width="1920"
   inkscape:window-height="1001"
   inkscape:window-x="-9"
   inkscape:window-y="-9"
   inkscape:window-maximized="1"
   inkscape:current-layer="svg2" />
<path
   id="path20982"
   inkscape:connector-curvature="0"
   d="M1199.398,427.364l-50.323,288.696  c-6.206,31.891-31.615,51.283-60.917,51.646H354.5l-14.566,82.106h699.226c36.819,2.798,61.793,28.88,62.242,62.241  c-2.677,36.743-28.757,61.786-62.242,62.242H265.773c-41.827-3.762-66.768-37.103-62.242-74.16l33.107-180.104l-50.323-505.88  L43.292,169.127C8.341,155.25-5.924,123.632,2.239,90.994c13.573-34.015,46.096-49.556,78.133-41.053l182.752,58.269  c24.62,9.229,38.783,29.382,42.377,52.972l10.594,100.646l829.006,92.7C1183.191,362.779,1203.87,392.95,1199.398,427.364  L1199.398,427.364z M455.272,1104.983c0,52.476-42.54,95.017-95.017,95.017s-95.017-42.541-95.017-95.017  c0-52.477,42.541-95.018,95.017-95.018S455.272,1052.507,455.272,1104.983z M1022.524,1104.983  c0,52.476-42.541,95.017-95.018,95.017s-95.017-42.541-95.017-95.017c0-52.477,42.54-95.018,95.017-95.018  S1022.524,1052.507,1022.524,1104.983z" />
<path
   style="display:inline;fill:#000080;stroke-width:1.4742"
   d="m 255.03686,971.61068 c -30.47552,-7.64324 -50.85996,-32.35499 -50.85996,-61.65677 0,-4.99734 7.11099,-47.59036 16.21622,-97.13099 8.91892,-48.52697 16.18691,-91.71861 16.15107,-95.98143 -0.0856,-10.1991 -49.19046,-501.96933 -50.22662,-503.00549 -0.43904,-0.43904 -33.52586,-11.11929 -73.52626,-23.73389 C 72.790909,177.48751 37.190127,165.48268 33.678461,163.42471 11.181987,150.24089 -1.0431218,127.27468 1.2669936,102.5362 4.1392375,71.778009 37.726717,44.894431 68.550369,48.682266 79.711753,50.053858 260.37053,107.63745 270.95968,113.19867 c 14.69395,7.71698 25.08834,19.92422 30.59576,35.93183 1.78824,5.19757 4.62023,26.03968 8.23851,60.6313 l 5.51357,52.71118 413.59931,46.12412 c 287.17627,32.02555 416.58237,46.99365 423.35857,48.96888 19.1666,5.58694 36.0719,20.78557 42.7923,38.47242 6.3448,16.69805 6.5852,14.73792 -21.5479,175.70098 -15.461,88.46027 -27.1862,151.70422 -28.9594,156.20291 -6.3879,16.20629 -19.62,29.12524 -36.2829,35.42427 l -8.5132,3.21821 -373.06294,0.38266 -373.06296,0.38267 -6.96016,40.15787 c -3.82811,22.08684 -6.93872,40.65542 -6.91249,41.26353 0.0262,0.60811 157.10543,1.11716 349.06489,1.13124 302.35138,0.0221 350.39356,0.31715 359.31086,2.20604 43.0931,9.12809 64.0787,50.27546 44.8571,87.95291 -7.6861,15.066 -25.2918,28.37281 -42.3241,31.98952 -11.9179,2.53071 -785.48837,2.10239 -795.62764,-0.44053 z"
   id="path373"
   inkscape:label="#2C2D65"
   sodipodi:insensitive="true" /><path
   style="fill:#000080;stroke-width:1.4742"
   d="m 340.54054,1197.1826 c -27.90302,-6.3991 -52.11642,-25.5779 -64.77883,-51.3097 -22.90639,-46.549 -3.14709,-102.8164 44.14001,-125.6947 45.52907,-22.02784 100.64198,-3.2998 123.80937,42.072 8.03806,15.742 10.23993,25.1226 10.18736,43.4009 -0.0407,14.1458 -0.60968,17.8244 -4.45646,28.812 -10.21557,29.1789 -32.94012,51.421 -61.727,60.4166 -13.02321,4.0697 -34.82876,5.1341 -47.17445,2.3029 z"
   id="path375" /><path
   style="fill:#000080;stroke-width:1.4742"
   d="m 907.37101,1197.0691 c -25.95591,-5.8419 -50.70065,-25.0122 -63.03485,-48.8343 -19.25454,-37.188 -12.51337,-79.9433 17.29223,-109.6745 17.02673,-16.9843 36.41275,-25.8266 60.11762,-27.4207 27.16134,-1.8267 51.94846,7.8349 71.87217,28.0145 18.83502,19.077 27.34702,38.8487 27.67582,64.2857 0.2213,17.127 -1.8795,26.4728 -9.6102,42.7518 -4.8037,10.1155 -8.2554,14.8227 -17.90813,24.4215 -13.22367,13.1499 -21.26323,18.2115 -37.7534,23.7689 -13.9144,4.6893 -34.66362,5.8354 -48.65126,2.6871 z"
   id="path377" /></svg>
