<?xml version="1.0" encoding="UTF-8" standalone="no"?>
<svg
   id="icon"
   viewBox="0 0 512 512"
   version="1.1"
   sodipodi:docname="cartao credito.svg"
   inkscape:version="1.2-beta (1b65182ce9, 2022-04-05)"
   xmlns:inkscape="http://www.inkscape.org/namespaces/inkscape"
   xmlns:sodipodi="http://sodipodi.sourceforge.net/DTD/sodipodi-0.dtd"
   xmlns="http://www.w3.org/2000/svg"
   xmlns:svg="http://www.w3.org/2000/svg"
   xmlns:rdf="http://www.w3.org/1999/02/22-rdf-syntax-ns#"
   xmlns:cc="http://creativecommons.org/ns#"
   xmlns:dc="http://purl.org/dc/elements/1.1/">
  <defs
     id="defs2334" />
  <sodipodi:namedview
     id="namedview2332"
     pagecolor="#ffffff"
     bordercolor="#000000"
     borderopacity="0.25"
     inkscape:pageshadow="2"
     inkscape:pageopacity="0.0"
     inkscape:pagecheckerboard="0"
     inkscape:deskcolor="#d1d1d1"
     showgrid="false"
     inkscape:zoom="1.1241893"
     inkscape:cx="201.47852"
     inkscape:cy="256.18461"
     inkscape:window-width="1920"
     inkscape:window-height="1001"
     inkscape:window-x="-9"
     inkscape:window-y="-9"
     inkscape:window-maximized="1"
     inkscape:current-layer="icon" />
  <title
     id="title2319">credit card</title>
  <path
     d="M405.17,140.33H106.83a25.14,25.14,0,0,0-25.11,25.11V346.56a25.14,25.14,0,0,0,25.11,25.11H405.17a25.14,25.14,0,0,0,25.11-25.11V195.08a5.74,5.74,0,0,0-5.74-5.74H93.19v-23.9a13.66,13.66,0,0,1,13.64-13.64H405.17a13.66,13.66,0,0,1,13.64,13.64V174a5.74,5.74,0,0,0,11.47,0v-8.53A25.14,25.14,0,0,0,405.17,140.33Zm0,219.87H106.83a13.66,13.66,0,0,1-13.64-13.64v-97H418.81v97A13.66,13.66,0,0,1,405.17,360.2Zm13.64-159.39v37.3H93.19v-37.3Z"
     id="path2321" />
  <path
     d="M237.05,274.44H163a5.74,5.74,0,1,0,0,11.47h74a5.74,5.74,0,0,0,0-11.47Z"
     id="path2323" />
  <path
     d="M271.41,278a7.79,7.79,0,0,0-.52-1,7.56,7.56,0,0,0-.72-.87,5.34,5.34,0,0,0-.87-.7,5.27,5.27,0,0,0-1-.53,5,5,0,0,0-1.08-.33,5.74,5.74,0,0,0-5.17,1.56,7.56,7.56,0,0,0-.72.87,7.79,7.79,0,0,0-.52,1,7.06,7.06,0,0,0-.33,1.08,6,6,0,0,0-.11,1.12,5.88,5.88,0,0,0,.11,1.11,6.17,6.17,0,0,0,.33,1.08,7.79,7.79,0,0,0,.52,1,6.79,6.79,0,0,0,.72.87,5.82,5.82,0,0,0,4.05,1.68,5.25,5.25,0,0,0,1.12-.11,6.44,6.44,0,0,0,1.08-.33,5.86,5.86,0,0,0,1-.52,5.46,5.46,0,0,0,.87-.72,6.79,6.79,0,0,0,.72-.87,7.79,7.79,0,0,0,.52-1,6.17,6.17,0,0,0,.33-1.08,5.88,5.88,0,0,0,.11-1.11,6,6,0,0,0-.11-1.12A7.06,7.06,0,0,0,271.41,278Z"
     id="path2325" />
  <path
     d="M299.33,278a5.92,5.92,0,0,0-.53-1,7.48,7.48,0,0,0-.71-.87,5.76,5.76,0,0,0-5.18-1.56,4.92,4.92,0,0,0-1.07.33,4.72,4.72,0,0,0-1,.53,5.41,5.41,0,0,0-.88.7,6.58,6.58,0,0,0-.71.87,5.86,5.86,0,0,0-.52,1,6.1,6.1,0,0,0-.33,1.08,6,6,0,0,0-.12,1.12,5.89,5.89,0,0,0,.12,1.11,5.42,5.42,0,0,0,.33,1.08,5.27,5.27,0,0,0,.53,1,5.34,5.34,0,0,0,.7.87,5.53,5.53,0,0,0,.88.72,5.19,5.19,0,0,0,1,.52,6.33,6.33,0,0,0,1.07.33,5.76,5.76,0,0,0,2.24,0,6.33,6.33,0,0,0,1.07-.33,5.19,5.19,0,0,0,1-.52,5.53,5.53,0,0,0,.88-.72,6.73,6.73,0,0,0,.71-.87,5.86,5.86,0,0,0,.52-1,5.42,5.42,0,0,0,.33-1.08,4.6,4.6,0,0,0,.11-1.11,4.68,4.68,0,0,0-.11-1.12A5.33,5.33,0,0,0,299.33,278Z"
     id="path2327" />
  <path
     d="M327.31,278a7.79,7.79,0,0,0-.52-1,6.65,6.65,0,0,0-.72-.87,5.74,5.74,0,0,0-5.17-1.56,5.18,5.18,0,0,0-1.08.33,5.27,5.27,0,0,0-1,.53,5.8,5.8,0,0,0-.87.7,7.56,7.56,0,0,0-.72.87,6.63,6.63,0,0,0-.51,1,5.37,5.37,0,0,0-.33,1.08,5.26,5.26,0,0,0-.12,1.12,5.17,5.17,0,0,0,.12,1.11,4.84,4.84,0,0,0,.33,1.08,6.63,6.63,0,0,0,.51,1,6.79,6.79,0,0,0,.72.87,5.94,5.94,0,0,0,.87.72,5.86,5.86,0,0,0,1,.52,6.74,6.74,0,0,0,1.08.33,5.25,5.25,0,0,0,1.12.11,5.8,5.8,0,0,0,4.05-1.68,6.05,6.05,0,0,0,.72-.87,7.79,7.79,0,0,0,.52-1,5.42,5.42,0,0,0,.33-1.08,5.88,5.88,0,0,0,.11-1.11,6,6,0,0,0-.11-1.12A6.1,6.1,0,0,0,327.31,278Z"
     id="path2329" />
  <path
     style="fill:#e9c6af;stroke-width:0.628993"
     d="M 101.4225,370.74045 C 95.4836,369.33275 89.320067,364.89017 85.957272,359.59334 81.849892,353.12369 82.083538,359.37196 82.083538,256 c 0,-103.37196 -0.233646,-97.12369 3.873734,-103.59334 2.601935,-4.09837 6.246479,-7.21769 11.144485,-9.5384 l 4.166053,-1.97391 H 256 410.73219 l 4.16605,1.97391 c 4.89801,2.32071 8.54255,5.44003 11.14449,9.5384 2.85163,4.49169 3.87373,8.84534 3.87373,16.50018 0,6.25379 -0.10549,6.82674 -1.54245,8.37723 -2.06703,2.23037 -5.44315,2.28383 -7.60653,0.12044 -1.41305,-1.41305 -1.54389,-2.02912 -1.54389,-7.26938 0,-3.14902 -0.30805,-6.94885 -0.68455,-8.44408 -0.85918,-3.41212 -3.69081,-6.89369 -7.08145,-8.70685 l -2.61238,-1.39698 H 256 103.15479 l -2.61238,1.39698 c -3.39064,1.81316 -6.222266,5.29473 -7.081449,8.70685 -0.380288,1.51026 -0.684548,8.32592 -0.684548,15.33441 v 12.61582 H 259.50784 426.23928 l 1.83859,1.83859 1.83859,1.8386 v 78.2438 c 0,86.17858 0.20091,81.61299 -3.87373,88.03107 -2.60194,4.09837 -6.24648,7.21769 -11.14449,9.5384 l -4.16605,1.97391 -153.4742,0.0972 c -87.8447,0.0557 -154.48395,-0.1421 -155.83549,-0.46245 z M 411.45759,359.0158 c 3.39064,-1.81316 6.22227,-5.29473 7.08145,-8.70685 0.46434,-1.84405 0.68455,-18.51263 0.68455,-51.81598 V 249.39558 H 256 92.776413 v 49.09739 c 0,33.30335 0.220211,49.97193 0.684548,51.81598 1.18401,4.70213 5.270397,8.59477 10.322819,9.83339 1.03784,0.25443 70.10123,0.41936 153.47421,0.36652 l 151.58722,-0.0961 z m 7.766,-139.49737 V 200.33415 H 256 92.776413 v 19.18428 19.18427 H 256 419.22359 Z"
     id="path2886" />
  <path
     style="fill:#e9c6af;stroke-width:0.628993;stroke:#000000;stroke-opacity:1"
     d="m 100.77563,370.10456 c -5.033006,-1.18513 -10.904877,-5.53153 -14.444251,-10.69173 -1.85826,-2.70923 -2.473023,-4.36475 -3.015465,-8.12045 -0.952494,-6.59476 -0.95053,-184.02534 0.0021,-190.55414 1.127343,-7.72613 5.857828,-13.57619 14.20034,-17.56118 l 4.120426,-1.96821 h 154.40269 154.40268 l 4.08366,1.99111 c 5.00079,2.43829 8.35438,5.24103 10.93766,9.14107 2.90343,4.38337 3.84809,8.32222 3.87115,16.14117 0.0169,5.71809 -0.16485,7.03685 -1.11524,8.0939 -1.59899,1.77841 -3.3612,2.29838 -5.39112,1.59075 -2.48787,-0.86728 -2.91666,-2.07047 -3.34482,-9.38573 -0.49905,-8.52648 -2.12126,-12.20627 -6.75744,-15.32846 l -3.237,-2.17993 H 256 102.50901 l -3.221672,2.1696 c -2.318948,1.56167 -3.6825,3.09436 -4.866298,5.46993 -1.622311,3.25556 -1.644627,3.48643 -1.644627,17.01468 v 13.71434 H 259.33607 425.89573 l 2.01036,2.07417 2.01037,2.07417 -0.0696,37.08062 c -0.0383,20.39434 -0.25058,56.18627 -0.47174,79.53762 l -0.40212,42.457 -1.70018,3.62819 c -2.246,4.79294 -7.28591,9.69738 -12.59617,12.25755 l -4.23246,2.04055 -153.64469,-0.0632 c -87.40447,-0.0359 -154.6704,-0.30471 -156.02384,-0.62341 z m 311.93703,-11.54688 c 2.31895,-1.56167 3.6825,-3.09437 4.8663,-5.46994 l 1.64463,-3.30034 V 299.59149 249.39558 H 255.9891 92.754612 l 0.168148,50.84079 0.168149,50.8408 1.896689,3.06751 c 1.380744,2.23306 2.811868,3.5456 5.261012,4.82505 l 3.36433,1.75754 H 256.55197 409.491 Z m 6.51093,-139.03925 V 200.33415 H 256 92.776413 v 19.18428 19.18427 H 256 419.22359 Z"
     id="path2888" />
  <path
     style="fill:#e9c6af;stroke:#000000;stroke-width:0.628993;stroke-opacity:1"
     d="m 161.50639,285.44426 c -3.73999,-0.74739 -5.18006,-6.36326 -2.32058,-9.04961 l 1.62316,-1.52487 h 38.89619 38.89619 l 1.62316,1.52487 c 2.23632,2.10092 2.23649,5.54192 3.8e-4,7.64313 l -1.62277,1.52487 -37.84651,0.081 c -20.81559,0.0445 -38.47773,-0.0452 -39.24922,-0.19935 z"
     id="path2890" />
  <path
     style="fill:#e9c6af;stroke:#000000;stroke-width:0.628993;stroke-opacity:1"
     d="m 264.06918,284.96023 c -3.57786,-1.55634 -4.42156,-5.31709 -1.86077,-8.2942 2.08929,-2.42893 5.62166,-2.42893 7.71094,0 2.49249,2.89769 1.77818,6.49279 -1.6414,8.26112 -2.15777,1.11583 -1.72743,1.11244 -4.20877,0.0331 z"
     id="path2892" />
  <path
     style="fill:#e9c6af;stroke:#000000;stroke-width:0.628993;stroke-opacity:1"
     d=""
     id="path2894" />
  <path
     style="fill:#e9c6af;stroke:#000000;stroke-width:0.628993;stroke-opacity:1"
     d="m 320.00539,284.9127 c -3.52968,-1.48412 -4.36639,-5.2824 -1.81663,-8.24667 2.08928,-2.42893 5.62165,-2.42893 7.71093,0 3.76163,4.37316 -0.5985,10.47338 -5.8943,8.24667 z"
     id="path2896" />
  <path
     style="fill:#170abe;stroke:#441868;stroke-width:0.629;stroke-opacity:1;stroke-dasharray:none;fill-opacity:1"
     d="m 292.79607,285.42463 c -3.22419,-1.16402 -4.76535,-4.38146 -3.52299,-7.35486 2.14297,-5.12884 10.02258,-3.40498 10.02258,2.19268 0,3.02236 -3.88341,6.10669 -6.49959,5.16218 z"
     id="path2898" />
  <path
     style="fill:#f3a268;fill-opacity:1;stroke:#441868;stroke-width:0.395636;stroke-dasharray:none;stroke-opacity:1"
     d="m 117.62162,369.55606 c -17.10429,-0.31637 -18.397543,-0.42154 -20.756755,-1.68808 -3.69793,-1.98522 -8.065917,-6.05302 -10.391857,-9.67768 -1.86859,-2.91195 -2.08774,-3.79068 -2.551523,-10.23092 -0.663961,-9.21999 -0.668803,-174.89334 -0.0054,-183.48543 0.399628,-5.1755 0.863406,-7.30837 2.134657,-9.81706 2.005234,-3.95714 6.806957,-8.35893 11.88826,-10.89808 l 3.844198,-1.92097 H 256.16966 410.5561 l 3.77706,2.01315 c 5.59997,2.98476 9.56418,6.85427 11.91588,11.63126 1.86203,3.78232 2.05329,4.73895 2.28691,11.43812 0.23608,6.7699 0.15362,7.43852 -1.1149,9.04032 -1.74847,2.20782 -4.6298,2.36126 -5.90577,0.31449 -0.48526,-0.77837 -1.17738,-4.47461 -1.53806,-8.21385 -0.81384,-8.43726 -2.2832,-11.72472 -6.72906,-15.05526 l -3.14497,-2.356 -154.10319,0.0124 -154.10319,0.0124 -2.947816,2.16303 c -1.621296,1.18967 -3.744146,3.51779 -4.717445,5.1736 l -1.769633,3.01056 -0.199071,14.62408 -0.199071,14.62408 H 258.79751 425.53124 l 1.91699,2.04423 1.91698,2.04422 -0.41555,78.92244 -0.41554,78.92244 -1.89689,3.75771 c -2.35007,4.65547 -7.19677,9.46751 -12.24417,12.15663 l -3.83696,2.04422 -137.34685,-0.13435 c -75.54076,-0.0739 -145.5552,-0.28617 -155.58763,-0.47175 z m 295.45352,-10.41153 c 1.6957,-1.24415 3.78651,-3.60091 4.86879,-5.48809 l 1.89684,-3.30755 0.006,-50.79115 0.006,-50.79116 H 255.98236 92.112137 l 0.174889,51.42015 0.17489,51.42015 2.079583,2.99519 c 1.260007,1.81476 3.367068,3.73358 5.346437,4.86878 l 3.266854,1.87361 153.4742,-0.01 153.4742,-0.01 2.97195,-2.18055 z m 6.77744,-139.6261 V 199.70516 H 256 92.14742 v 19.81327 19.81327 H 256 419.85258 Z"
     id="path25363" />
  <path
     style="fill:#f3a268;fill-opacity:1;stroke:#441868;stroke-width:0.395636;stroke-dasharray:none;stroke-opacity:1"
     d="m 292.44358,284.47546 c -2.86075,-1.50468 -3.6455,-4.64844 -1.81332,-7.26425 2.15875,-3.08205 7.82674,-0.98528 7.82674,2.89536 0,2.91309 -3.6876,5.59221 -6.01342,4.36889 z"
     id="path57657" />
  <path
     style="fill:#f3a268;fill-opacity:1;stroke:#441868;stroke-width:0.395636;stroke-dasharray:none;stroke-opacity:1"
     d="m 318.87067,283.07527 c -1.92879,-1.92879 -1.95553,-3.56833 -0.0935,-5.73307 1.93796,-2.25301 4.59616,-2.25301 6.53411,0 1.79281,2.08427 1.82928,3.48068 0.14675,5.61966 -1.70416,2.16649 -4.48638,2.21439 -6.58736,0.11341 z"
     id="path57659" />
  <path
     style="fill:#f3a268;fill-opacity:1;stroke:#441868;stroke-width:0.395636;stroke-dasharray:none;stroke-opacity:1"
     d=""
     id="path57661" />
  <path
     style="fill:#f3a268;fill-opacity:1;stroke:#441868;stroke-width:0.395636;stroke-dasharray:none;stroke-opacity:1"
     d="m 264.03654,284.00733 c -2.51948,-1.53618 -3.20404,-3.85655 -1.77928,-6.031 1.98003,-3.02191 5.09696,-3.20531 7.28126,-0.42843 1.71376,2.1787 1.55837,3.70751 -0.59579,5.86166 -2.17742,2.17742 -2.29245,2.19144 -4.90619,0.59777 z"
     id="path57663" />
  <path
     style="fill:#f3a268;fill-opacity:1;stroke:#441868;stroke-width:0.395636;stroke-dasharray:none;stroke-opacity:1"
     d="m 163.85258,284.82916 c -3.57144,-0.56253 -4.22084,-0.88248 -4.92411,-2.42598 -1.06343,-2.33398 -0.93123,-3.11739 0.89157,-5.28367 l 1.6284,-1.93523 h 38.19495 38.19496 l 1.69016,1.76414 c 2.1447,2.23858 2.1447,4.29701 0,6.53559 l -1.69016,1.76415 -36.20664,-0.0857 c -19.91366,-0.0471 -36.91427,-0.19711 -37.77913,-0.33334 z"
     id="path57665" />
  <metadata
     id="metadata58031">
    <rdf:RDF>
      <cc:Work
         rdf:about="">
        <dc:title>credit card</dc:title>
      </cc:Work>
    </rdf:RDF>
  </metadata>
</svg>
