<?xml version="1.0" encoding="UTF-8" standalone="no"?>
<svg
   viewBox="0 0 448 512"
   version="1.1"
   id="svg4"
   sodipodi:docname="face1.svg"
   inkscape:version="1.2-beta (1b65182ce9, 2022-04-05)"
   xmlns:inkscape="http://www.inkscape.org/namespaces/inkscape"
   xmlns:sodipodi="http://sodipodi.sourceforge.net/DTD/sodipodi-0.dtd"
   xmlns="http://www.w3.org/2000/svg"
   xmlns:svg="http://www.w3.org/2000/svg">
  <defs
     id="defs8" />
  <sodipodi:namedview
     id="namedview6"
     pagecolor="#ffffff"
     bordercolor="#000000"
     borderopacity="0.25"
     inkscape:pageshadow="2"
     inkscape:pageopacity="0.0"
     inkscape:pagecheckerboard="0"
     inkscape:deskcolor="#d1d1d1"
     showgrid="false"
     inkscape:zoom="1.5898438"
     inkscape:cx="168.88452"
     inkscape:cy="256"
     inkscape:window-width="1920"
     inkscape:window-height="1001"
     inkscape:window-x="-9"
     inkscape:window-y="-9"
     inkscape:window-maximized="1"
     inkscape:current-layer="svg4" />
  <!--! Font Awesome Pro 6.1.1 by @fontawesome - https://fontawesome.com License - https://fontawesome.com/license (Commercial License) Copyright 2022 Fonticons, Inc. -->
  <path
     d="M400 32H48A48 48 0 0 0 0 80v352a48 48 0 0 0 48 48h137.25V327.69h-63V256h63v-54.64c0-62.15 37-96.48 93.67-96.48 27.14 0 55.52 4.84 55.52 4.84v61h-31.27c-30.81 0-40.42 19.12-40.42 38.73V256h68.78l-11 71.69h-57.78V480H400a48 48 0 0 0 48-48V80a48 48 0 0 0-48-48z"
     id="path2" />
  <path
     style="fill:#2c2c65;stroke-width:0.628993;fill-opacity:1"
     d="M 38.283836,478.66769 C 19.623176,474.60936 5.1808578,459.9377 1.310894,441.1076 0.41528811,436.74984 0.31449631,418.02507 0.31449631,256 0.31449631,93.974928 0.41528811,75.250155 1.310894,70.892402 4.6076922,54.851161 15.417503,41.849035 30.533256,35.743511 39.37831,32.170835 27.427054,32.366502 225.95565,32.544052 l 182.88956,0.163565 4.40295,1.478022 c 8.60678,2.889204 14.01917,6.201158 20.15721,12.334615 4.57841,4.574982 6.26696,6.808946 8.64088,11.431935 1.65899,3.230729 3.50262,8.048913 4.21184,11.007371 1.24736,5.203212 1.2614,7.276369 1.26576,186.91627 0.005,204.74771 0.50655,185.54457 -5.15313,197.28828 -2.79464,5.79879 -3.85207,7.2569 -8.91327,12.29055 -6.19088,6.1572 -11.61566,9.47491 -20.20929,12.3597 l -4.40295,1.47802 -72.8059,0.17249 -72.80589,0.17247 V 403.8285 328.01966 h 28.79681 28.79681 l 5.23538,-34.12285 c 2.87946,-18.76757 5.38398,-35.04276 5.56558,-36.16708 l 0.33021,-2.04423 h -34.3624 -34.36239 l 0.0109,-26.26044 c 0.0123,-29.44585 0.25904,-31.81362 4.13731,-39.69447 3.05794,-6.21388 8.11511,-11.2356 14.3209,-14.22046 7.87637,-3.78838 10.92554,-4.20652 33.26551,-4.56184 l 19.97052,-0.31762 V 139.9958 109.36092 l -10.53563,-1.3735 c -17.3498,-2.26185 -22.40297,-2.66064 -38.52579,-3.04044 -12.20269,-0.28745 -16.99593,-0.15272 -23.02799,0.64729 -43.65951,5.79038 -70.44584,32.71937 -76.62678,77.0349 -0.79062,5.66827 -0.98408,13.54328 -0.98408,40.05585 V 255.6855 H 153.4742 121.71007 v 36.16708 36.16708 h 31.76413 31.76413 v 75.79361 75.79361 l -71.54791,-0.05 C 56.540012,479.51693 41.36603,479.338 38.283836,478.66769 Z"
     id="path306" />
</svg>
