<?xml version="1.0" encoding="UTF-8" standalone="no"?>
<svg
   viewBox="0 0 448 512"
   version="1.1"
   id="svg9953"
   sodipodi:docname="instagram2.svg"
   inkscape:version="1.2-beta (1b65182ce9, 2022-04-05)"
   xmlns:inkscape="http://www.inkscape.org/namespaces/inkscape"
   xmlns:sodipodi="http://sodipodi.sourceforge.net/DTD/sodipodi-0.dtd"
   xmlns="http://www.w3.org/2000/svg"
   xmlns:svg="http://www.w3.org/2000/svg">
  <defs
     id="defs9957" />
  <sodipodi:namedview
     id="namedview9955"
     pagecolor="#ffffff"
     bordercolor="#000000"
     borderopacity="0.25"
     inkscape:pageshadow="2"
     inkscape:pageopacity="0.0"
     inkscape:pagecheckerboard="0"
     inkscape:deskcolor="#d1d1d1"
     showgrid="false"
     inkscape:zoom="1.5898438"
     inkscape:cx="168.88452"
     inkscape:cy="256"
     inkscape:window-width="1920"
     inkscape:window-height="1001"
     inkscape:window-x="-9"
     inkscape:window-y="-9"
     inkscape:window-maximized="1"
     inkscape:current-layer="svg9953" />
  <!--! Font Awesome Pro 6.1.1 by @fontawesome - https://fontawesome.com License - https://fontawesome.com/license (Commercial License) Copyright 2022 Fonticons, Inc. -->
  <path
     d="M224,202.66A53.34,53.34,0,1,0,277.36,256,53.38,53.38,0,0,0,224,202.66Zm124.71-41a54,54,0,0,0-30.41-30.41c-21-8.29-71-6.43-94.3-6.43s-73.25-1.93-94.31,6.43a54,54,0,0,0-30.41,30.41c-8.28,21-6.43,71.05-6.43,94.33S91,329.26,99.32,350.33a54,54,0,0,0,30.41,30.41c21,8.29,71,6.43,94.31,6.43s73.24,1.93,94.3-6.43a54,54,0,0,0,30.41-30.41c8.35-21,6.43-71.05,6.43-94.33S357.1,182.74,348.75,161.67ZM224,338a82,82,0,1,1,82-82A81.9,81.9,0,0,1,224,338Zm85.38-148.3a19.14,19.14,0,1,1,19.13-19.14A19.1,19.1,0,0,1,309.42,189.74ZM400,32H48A48,48,0,0,0,0,80V432a48,48,0,0,0,48,48H400a48,48,0,0,0,48-48V80A48,48,0,0,0,400,32ZM382.88,322c-1.29,25.63-7.14,48.34-25.85,67s-41.4,24.63-67,25.85c-26.41,1.49-105.59,1.49-132,0-25.63-1.29-48.26-7.15-67-25.85s-24.63-41.42-25.85-67c-1.49-26.42-1.49-105.61,0-132,1.29-25.63,7.07-48.34,25.85-67s41.47-24.56,67-25.78c26.41-1.49,105.59-1.49,132,0,25.63,1.29,48.33,7.15,67,25.85s24.63,41.42,25.85,67.05C384.37,216.44,384.37,295.56,382.88,322Z"
     id="path9951" />
  <path
     style="fill:#2c2c65;stroke-width:0.628993"
     d="M 38.283836,478.67089 C 19.606703,474.59348 5.1807545,459.93719 1.310894,441.1076 0.41528811,436.74984 0.31449631,418.02507 0.31449631,256 0.31449631,93.974928 0.41528811,75.250155 1.310894,70.892402 4.6076922,54.851161 15.417503,41.849035 30.533256,35.743511 39.37831,32.170835 27.427054,32.366502 225.95565,32.544052 l 182.88956,0.163565 4.40295,1.478022 c 8.60678,2.889204 14.01917,6.201158 20.15721,12.334615 4.57841,4.574982 6.26696,6.808946 8.64088,11.431935 1.65899,3.230729 3.50262,8.048913 4.21184,11.007371 1.24736,5.203212 1.2614,7.276369 1.26576,186.91627 0.005,204.74771 0.50655,185.54457 -5.15313,197.28828 -2.79464,5.79879 -3.85207,7.2569 -8.91327,12.29055 -6.19088,6.1572 -11.61566,9.47491 -20.20929,12.3597 l -4.40295,1.47802 -183.35135,0.11045 C 74.322788,479.49389 41.465265,479.36543 38.283836,478.67089 Z M 281.71645,415.44156 c 21.51135,-0.86864 31.3492,-2.29187 43.13397,-6.24013 20.50111,-6.86851 38.51428,-22.41789 47.73709,-41.20775 6.90397,-14.06565 9.6105,-26.86562 10.77989,-50.98139 0.79493,-16.39349 0.78912,-105.75386 -0.008,-122.1763 -1.39533,-28.74881 -5.62609,-44.25019 -16.52335,-60.54107 -4.05851,-6.06727 -15.14236,-17.15113 -21.20964,-21.20964 C 333.1698,104.75285 319.0236,99.884092 301.2874,97.824959 288.90927,96.387881 256.554,95.785281 209.76897,96.120471 c -48.58516,0.348091 -59.15062,0.786933 -71.56827,2.972619 -36.3035,6.38996 -61.791488,30.13597 -69.982066,65.19917 -2.12753,9.10779 -3.094877,19.23408 -3.819155,39.97937 -0.834831,23.91161 -0.356954,108.22475 0.688445,121.46452 2.294577,29.06048 9.694581,47.23881 25.776501,63.32073 12.250695,12.25069 25.486775,19.27044 43.739925,23.19745 8.10824,1.74442 16.57459,2.64153 29.87715,3.16585 17.62999,0.69488 100.18322,0.70993 117.23488,0.0214 z"
     id="path10076" />
  <path
     style="fill:#2c2c65;stroke-width:0.628993"
     d="m 169.74663,386.50181 c -21.8797,-1.10475 -35.04308,-3.50091 -43.93453,-7.99753 -13.65234,-6.90431 -23.44978,-18.61866 -27.626539,-33.03178 -3.931224,-13.56583 -4.843322,-27.46217 -5.129489,-78.15063 -0.420453,-74.47433 1.146646,-94.57693 8.543428,-109.59435 6.83526,-13.87739 19.78709,-24.34195 34.85191,-28.15896 15.8688,-4.02073 35.59704,-4.93566 97.53385,-4.52331 48.46291,0.32265 55.71398,0.63155 69.76047,2.97183 13.66392,2.27654 23.02991,6.61318 31.60283,14.63272 4.62587,4.32727 10.23743,12.40713 12.52242,18.03052 5.89151,14.4991 7.17709,31.57308 7.17709,95.31968 0,55.5774 -0.88298,72.76983 -4.45618,86.76604 -3.68868,14.44854 -11.82822,25.71544 -24.10582,33.36773 -8.36312,5.2125 -18.98746,7.99366 -37.46396,9.80701 -8.77941,0.86164 -104.41292,1.31147 -119.27548,0.56103 z m 73.98415,-50.58168 c 7.03036,-1.77387 14.92023,-4.91507 21.05981,-8.38457 13.97468,-7.89714 26.53002,-21.34968 33.36136,-35.74538 10.62505,-22.39015 10.60779,-49.22657 -0.0461,-71.67748 -5.48194,-11.55209 -16.4883,-24.50867 -26.85063,-31.6083 -7.27749,-4.98611 -18.0995,-9.94271 -26.67849,-12.21905 -7.12675,-1.89101 -7.98669,-1.97754 -20.02636,-2.01512 -13.77661,-0.043 -17.57182,0.52613 -27.99017,4.19749 -27.28725,9.61584 -46.95863,32.11056 -53.22485,60.86398 -1.64829,7.56343 -1.64829,25.77317 0,33.3366 6.37602,29.25721 26.62059,51.94168 54.75745,61.35686 9.88403,3.3074 15.31264,4.04006 28.03005,3.78294 9.34014,-0.18883 12.00712,-0.4748 17.60793,-1.88797 z m 73.9105,-147.82065 c 3.81908,-1.73721 7.35255,-5.20244 9.26725,-9.08827 1.16566,-2.36568 1.42342,-3.92555 1.41355,-8.55421 -0.0104,-4.89239 -0.23763,-6.0879 -1.67356,-8.80589 -3.32824,-6.29986 -8.74571,-9.76683 -16.00224,-10.24083 -6.06168,-0.39595 -9.94859,0.94395 -14.31511,4.9347 -4.42921,4.04805 -6.23952,8.14285 -6.25172,14.141 -0.015,7.35547 3.50412,13.55598 9.56622,16.85539 5.88576,3.20342 12.04905,3.46307 17.99561,0.75811 z"
     id="path10441" />
</svg>
