<?xml version="1.0" encoding="UTF-8" standalone="no"?>
<svg
   version="1.1"
   viewBox="0 0 26.1 26.1"
   enable-background="new 0 0 26.1 26.1"
   id="svg51421"
   sodipodi:docname="lupa3.svg"
   inkscape:version="1.2-beta (1b65182ce9, 2022-04-05)"
   xmlns:inkscape="http://www.inkscape.org/namespaces/inkscape"
   xmlns:sodipodi="http://sodipodi.sourceforge.net/DTD/sodipodi-0.dtd"
   xmlns="http://www.w3.org/2000/svg"
   xmlns:svg="http://www.w3.org/2000/svg">
  <defs
     id="defs51425" />
  <sodipodi:namedview
     id="namedview51423"
     pagecolor="#ffffff"
     bordercolor="#000000"
     borderopacity="0.25"
     inkscape:pageshadow="2"
     inkscape:pageopacity="0.0"
     inkscape:pagecheckerboard="0"
     inkscape:deskcolor="#d1d1d1"
     showgrid="false"
     inkscape:zoom="30.038314"
     inkscape:rotation="90"
     inkscape:cx="13.05"
     inkscape:cy="13.033355"
     inkscape:window-width="1920"
     inkscape:window-height="1001"
     inkscape:window-x="-9"
     inkscape:window-y="-9"
     inkscape:window-maximized="1"
     inkscape:current-layer="svg51421" />
  <path
     d="m25.806,22.9l-5.4-5.4c-0.2-0.2-0.2-0.4-0.1-0.6 1.1-1.7 1.7-3.7 1.7-5.9 0-6.1-4.9-11-11-11s-11,4.9-11,11 4.9,11 11,11c2.2,0 4.2-0.6 5.9-1.7 0.2-0.1 0.5-0.1 0.6,0.1l5.4,5.4c0.4,0.4 1,0.4 1.4,0l1.4-1.4c0.5-0.5 0.5-1.1 0.1-1.5zm-14.7-4.9c-3.9,0-7-3.1-7-7s3.1-7 7-7 7,3.1 7,7-3.1,7-7,7z"
     id="path51419" />
  <path
     style="fill:#ffc90d;fill-opacity:1;stroke-width:0.0332908"
     d="m 23.327413,26.034371 c -0.07844,-0.02449 -0.220754,-0.105119 -0.316262,-0.179173 -0.09551,-0.07405 -1.402082,-1.367211 -2.903498,-2.873683 l -2.729847,-2.73904 -0.200994,-8.29e-4 c -0.185344,-7.65e-4 -0.225523,0.01376 -0.516008,0.186524 -1.393202,0.828603 -2.744904,1.288143 -4.359847,1.482224 -0.668226,0.08031 -1.943406,0.07985 -2.5800386,-9.15e-4 C 7.6379413,21.645212 5.8661361,20.914857 4.2112883,19.638356 3.7055319,19.248231 2.7439541,18.283642 2.3461788,17.767407 0.5272227,15.406753 -0.25880677,12.514694 0.11866034,9.571638 0.37321176,7.5869378 1.1676612,5.7147984 2.4285996,4.12821 2.7698156,3.6988717 3.5375707,2.9151549 3.9566328,2.5684094 6.842887,0.18022853 10.655727,-0.584147 14.260036,0.50284453 c 0.720859,0.21739739 1.725676,0.66993887 2.441141,1.09942057 2.739852,1.6446891 4.673269,4.5269557 5.15183,7.6801593 0.227017,1.4957976 0.159079,3.0196286 -0.198417,4.4503946 -0.249261,0.997592 -0.610062,1.875604 -1.148988,2.796071 -0.269121,0.459652 -0.299276,0.541716 -0.266144,0.724294 0.02004,0.110439 0.345829,0.44857 2.862531,2.970987 3.134739,3.141858 2.968254,2.951909 2.961615,3.379018 -0.006,0.385919 -0.08314,0.492957 -1.058559,1.468905 -0.794619,0.795047 -0.885736,0.875746 -1.061874,0.940466 -0.218013,0.08011 -0.407557,0.08682 -0.615758,0.02181 z M 12.134503,17.939959 C 14.103458,17.662791 15.87384,16.543008 16.970737,14.880995 18.789852,12.124679 18.410602,8.3569184 16.079393,6.025709 13.574013,3.5203297 9.4887299,3.2957334 6.7080995,5.5105043 6.3565565,5.7905084 5.7539401,6.407792 5.5000487,6.7479583 4.790675,7.6983851 4.3414244,8.7836987 4.1591915,9.9872449 c -0.075383,0.4978631 -0.074744,1.5333071 0.00125,2.0307401 0.1458993,0.954968 0.4681551,1.859169 0.9431548,2.646348 0.5448798,0.902987 1.4344227,1.792428 2.3378496,2.337583 1.3889304,0.838121 3.0476491,1.169664 4.6930531,0.938043 z"
     id="path51859" />
  <path
     style="fill:#ffc90d;fill-opacity:1;stroke-width:0.0332908"
     d="m 26.009949,23.869515 c -0.06777,0.19416 -0.311335,0.474599 -1.077183,1.240248 -0.868689,0.868462 -0.969152,0.939391 -1.331364,0.939976 -0.398598,6.43e-4 -0.283525,0.102379 -3.399594,-3.00559 l -2.835436,-2.828066 -0.211228,0.01345 c -0.187577,0.01194 -0.254032,0.038 -0.593518,0.232754 C 14.65766,21.55452 12.86292,22.004719 10.653061,21.944412 8.589543,21.888098 6.6655535,21.275336 4.932933,20.122635 4.2728646,19.683495 3.8715715,19.350911 3.2602326,18.736331 2.6943284,18.167427 2.4051034,17.830835 2.0642799,17.344515 1.021598,15.856716 0.38884822,14.24115 0.12804387,12.400829 0.0443632,11.810351 0.04340248,10.191232 0.12639445,9.6210459 0.41962645,7.6064299 1.0824521,5.9695238 2.2293231,4.4276786 3.7236317,2.4187409 5.9627414,0.94356527 8.4225765,0.34742429 9.4141242,0.10712286 10.130064,0.03485881 11.277836,0.05922703 c 1.731983,0.03677137 3.071659,0.36879599 4.65182,1.15290557 2.277645,1.1302162 4.088988,3.0385637 5.121802,5.3960944 0.617082,1.4085694 0.902653,2.8004741 0.903479,4.403657 10e-4,1.978139 -0.439219,3.669652 -1.40501,5.39843 -0.294179,0.526585 -0.325756,0.599069 -0.325756,0.747765 0,0.111418 0.02805,0.166749 0.172568,0.340405 0.09491,0.114049 1.253246,1.29457 2.574075,2.62338 2.552143,2.567565 2.837244,2.863298 2.985334,3.096675 0.07766,0.122378 0.09346,0.182901 0.09129,0.349554 -0.0014,0.110852 -0.01831,0.246492 -0.03749,0.301422 z M 18.075777,10.13606 C 17.823883,8.0885461 16.725505,6.2828493 15.050861,5.1631995 13.483965,4.1155888 11.503423,3.7384099 9.6200938,4.1289518 8.8890564,4.2805455 8.0498083,4.6106799 7.411371,4.9977951 6.5597653,5.5141653 5.6757236,6.3862049 5.1508876,7.2275904 4.0766429,8.9497539 3.7961941,11.080903 4.3828775,13.063747 c 0.4348003,1.469517 1.3681193,2.767411 2.6525826,3.68874 1.6123614,1.156526 3.8427739,1.562201 5.8256039,1.059579 2.580476,-0.654117 4.584334,-2.734101 5.116973,-5.311364 0.151428,-0.732715 0.188417,-1.627577 0.09774,-2.364642 z"
     id="path53667" />
</svg>
