<?xml version="1.0" encoding="UTF-8" standalone="no"?>
<svg
   fill="#000000"
   viewBox="0 0 32 32"
   width="32px"
   height="32px"
   version="1.1"
   id="svg4"
   sodipodi:docname="lupa.svg"
   inkscape:version="1.2-beta (1b65182ce9, 2022-04-05)"
   xmlns:inkscape="http://www.inkscape.org/namespaces/inkscape"
   xmlns:sodipodi="http://sodipodi.sourceforge.net/DTD/sodipodi-0.dtd"
   xmlns="http://www.w3.org/2000/svg"
   xmlns:svg="http://www.w3.org/2000/svg">
  <defs
     id="defs8" />
  <sodipodi:namedview
     id="namedview6"
     pagecolor="#ffffff"
     bordercolor="#000000"
     borderopacity="0.25"
     inkscape:pageshadow="2"
     inkscape:pageopacity="0.0"
     inkscape:pagecheckerboard="0"
     inkscape:deskcolor="#d1d1d1"
     showgrid="false"
     inkscape:zoom="25.4375"
     inkscape:cx="14.683047"
     inkscape:cy="15.685504"
     inkscape:window-width="1920"
     inkscape:window-height="1001"
     inkscape:window-x="-9"
     inkscape:window-y="-9"
     inkscape:window-maximized="1"
     inkscape:current-layer="svg4" />
  <path
     d="M 19 3 C 13.488281 3 9 7.488281 9 13 C 9 15.394531 9.839844 17.589844 11.25 19.3125 L 3.28125 27.28125 L 4.71875 28.71875 L 12.6875 20.75 C 14.410156 22.160156 16.605469 23 19 23 C 24.511719 23 29 18.511719 29 13 C 29 7.488281 24.511719 3 19 3 Z M 19 5 C 23.429688 5 27 8.570313 27 13 C 27 17.429688 23.429688 21 19 21 C 14.570313 21 11 17.429688 11 13 C 11 8.570313 14.570313 5 19 5 Z"
     id="path2" />
  <path
     style="fill:#ffcc00;stroke-width:0.039312;fill-opacity:1"
     d="M 4.0195777,27.980277 3.3221928,27.282084 7.292546,23.311877 c 2.1836942,-2.183614 3.970353,-3.980811 3.970353,-3.99377 0,-0.01296 -0.111239,-0.172205 -0.247198,-0.353881 -1.0196137,-1.36246 -1.6327518,-2.844086 -1.9018183,-4.595676 -0.097925,-0.637476 -0.09845,-2.121838 -9.75e-4,-2.751842 0.2102196,-1.358685 0.7204761,-2.7609714 1.4018563,-3.8525802 1.359683,-2.178287 3.555135,-3.7967585 6.001969,-4.4246096 1.510675,-0.3876352 3.15964,-0.4154007 4.652781,-0.078344 3.753454,0.8472923 6.722019,3.8158567 7.569311,7.5693118 0.313338,1.388067 0.310934,2.930481 -0.0068,4.359111 -0.416416,1.872368 -1.427668,3.651599 -2.850187,5.014712 -1.491549,1.429262 -3.38378,2.352295 -5.498551,2.682204 -0.628855,0.0981 -2.11202,0.09789 -2.751843,-3.97e-4 -1.71358,-0.263228 -3.188858,-0.863894 -4.501229,-1.832697 -0.194594,-0.143652 -0.377989,-0.275912 -0.407543,-0.293912 -0.03899,-0.02374 -1.145127,1.058624 -4.0297256,3.943117 L 4.7169627,28.67847 Z M 19.863957,20.970702 c 1.161761,-0.126549 2.337268,-0.522011 3.303147,-1.111239 1.896627,-1.157023 3.244576,-3.071037 3.682623,-5.22912 C 27.393585,11.950961 26.585994,9.246924 24.669535,7.3304649 22.257074,4.9180034 18.580197,4.2946795 15.516412,5.7787785 14.605551,6.22 13.926173,6.7121232 13.226404,7.4375984 12.352756,8.3433403 11.793946,9.265944 11.397833,10.456597 c -1.253006,3.766333 0.42314,7.886331 3.93795,9.679555 0.908702,0.463612 1.862173,0.740541 2.924659,0.849447 0.316105,0.0324 1.248856,0.02374 1.603515,-0.0149 z"
     id="path375" />
</svg>
