<?xml version="1.0" encoding="UTF-8" standalone="no"?>
<!-- Generator: Adobe Illustrator 18.1.1, SVG Export Plug-In . SVG Version: 6.00 Build 0)  -->

<svg
   version="1.1"
   id="Capa_1"
   x="0px"
   y="0px"
   viewBox="0 0 250.579 250.579"
   style="enable-background:new 0 0 250.579 250.579;"
   xml:space="preserve"
   sodipodi:docname="menu3.svg"
   inkscape:version="1.2-beta (1b65182ce9, 2022-04-05)"
   xmlns:inkscape="http://www.inkscape.org/namespaces/inkscape"
   xmlns:sodipodi="http://sodipodi.sourceforge.net/DTD/sodipodi-0.dtd"
   xmlns="http://www.w3.org/2000/svg"
   xmlns:svg="http://www.w3.org/2000/svg"><defs
   id="defs752" /><sodipodi:namedview
   id="namedview750"
   pagecolor="#ffffff"
   bordercolor="#000000"
   borderopacity="0.25"
   inkscape:pageshadow="2"
   inkscape:pageopacity="0.0"
   inkscape:pagecheckerboard="0"
   inkscape:deskcolor="#d1d1d1"
   showgrid="false"
   inkscape:zoom="3.1287538"
   inkscape:cx="125.12969"
   inkscape:cy="125.2895"
   inkscape:window-width="1920"
   inkscape:window-height="1001"
   inkscape:window-x="-9"
   inkscape:window-y="-9"
   inkscape:window-maximized="1"
   inkscape:current-layer="Capa_1" />
<g
   id="Menu">
	<path
   style="fill-rule:evenodd;clip-rule:evenodd;"
   d="M22.373,76.068h205.832c12.356,0,22.374-10.017,22.374-22.373   c0-12.356-10.017-22.373-22.374-22.373H22.373C10.017,31.323,0,41.339,0,53.696C0,66.052,10.017,76.068,22.373,76.068z    M228.205,102.916H22.373C10.017,102.916,0,112.933,0,125.289c0,12.357,10.017,22.373,22.373,22.373h205.832   c12.356,0,22.374-10.016,22.374-22.373C250.579,112.933,240.561,102.916,228.205,102.916z M228.205,174.51H22.373   C10.017,174.51,0,184.526,0,196.883c0,12.356,10.017,22.373,22.373,22.373h205.832c12.356,0,22.374-10.017,22.374-22.373   C250.579,184.526,240.561,174.51,228.205,174.51z"
   id="path716" />
</g>
<g
   id="g719">
</g>
<g
   id="g721">
</g>
<g
   id="g723">
</g>
<g
   id="g725">
</g>
<g
   id="g727">
</g>
<g
   id="g729">
</g>
<g
   id="g731">
</g>
<g
   id="g733">
</g>
<g
   id="g735">
</g>
<g
   id="g737">
</g>
<g
   id="g739">
</g>
<g
   id="g741">
</g>
<g
   id="g743">
</g>
<g
   id="g745">
</g>
<g
   id="g747">
</g>
<path
   style="fill:#ff7f2a;stroke-width:0.319616"
   d="M 17.8985,75.441164 C 4.9944876,72.617043 -2.8240901,59.216801 1.2755277,46.95109 3.6091497,39.969089 8.5126509,35.057542 15.661187,32.541826 l 2.556929,-0.899835 H 125.2895 232.36088 l 2.55693,0.899835 c 7.14341,2.513911 11.96574,7.340574 14.42877,14.441737 0.79281,2.285746 0.88687,2.997599 0.88687,6.711937 0,3.714338 -0.0941,4.426191 -0.88687,6.711937 -2.4536,7.073983 -7.3127,11.93745 -14.42877,14.441738 l -2.55693,0.899834 -106.27234,0.05593 C 39.371628,75.85057 19.463316,75.783617 17.8985,75.441164 Z"
   id="path754" /><path
   style="fill:#ff7f2a;stroke-width:0.319616"
   d="M 17.8985,147.03516 C 4.9944876,144.21104 -2.8240901,130.8108 1.2755277,118.54509 c 2.333622,-6.982 7.2371232,-11.89355 14.3856593,-14.40926 l 2.556929,-0.89984 H 125.2895 232.36088 l 2.55693,0.89984 c 7.14341,2.51391 11.96574,7.34057 14.42877,14.44173 0.79281,2.28575 0.88687,2.9976 0.88687,6.71194 0,3.71434 -0.0941,4.42619 -0.88687,6.71194 -2.4536,7.07398 -7.3127,11.93745 -14.42877,14.44173 l -2.55693,0.89984 -106.27234,0.0559 c -86.716912,0.0456 -106.625224,-0.0213 -108.19004,-0.36378 z"
   id="path756" /><path
   style="fill:#ff7f2a;stroke-width:0.319616"
   d="M 17.8985,218.62916 C 4.9944876,215.80504 -2.8240901,202.4048 1.2755277,190.13909 c 2.333622,-6.982 7.2371232,-11.89355 14.3856593,-14.40926 l 2.556929,-0.89984 H 125.2895 232.36088 l 2.55693,0.89984 c 7.14341,2.51391 11.96574,7.34057 14.42877,14.44173 0.79281,2.28575 0.88687,2.9976 0.88687,6.71194 0,3.71434 -0.0941,4.42619 -0.88687,6.71194 -2.4536,7.07398 -7.3127,11.93745 -14.42877,14.44173 l -2.55693,0.89984 -106.27234,0.0559 c -86.716912,0.0456 -106.625224,-0.0213 -108.19004,-0.36378 z"
   id="path758" /></svg>
