<?xml version="1.0" encoding="UTF-8" standalone="no"?>
<!-- Generator: Adobe Illustrator 21.0.0, SVG Export Plug-In . SVG Version: 6.00 Build 0)  -->

<svg
   version="1.1"
   id="Layer_2"
   x="0px"
   y="0px"
   viewBox="0 0 100 100"
   style="enable-background:new 0 0 100 100;"
   xml:space="preserve"
   sodipodi:docname="montagem.svg"
   inkscape:version="1.2-beta (1b65182ce9, 2022-04-05)"
   xmlns:inkscape="http://www.inkscape.org/namespaces/inkscape"
   xmlns:sodipodi="http://sodipodi.sourceforge.net/DTD/sodipodi-0.dtd"
   xmlns="http://www.w3.org/2000/svg"
   xmlns:svg="http://www.w3.org/2000/svg"><defs
   id="defs63994" /><sodipodi:namedview
   id="namedview63992"
   pagecolor="#ffffff"
   bordercolor="#000000"
   borderopacity="0.25"
   inkscape:pageshadow="2"
   inkscape:pageopacity="0.0"
   inkscape:pagecheckerboard="0"
   inkscape:deskcolor="#d1d1d1"
   showgrid="false"
   inkscape:zoom="7.84"
   inkscape:cx="49.936224"
   inkscape:cy="50"
   inkscape:window-width="1920"
   inkscape:window-height="1001"
   inkscape:window-x="-9"
   inkscape:window-y="-9"
   inkscape:window-maximized="1"
   inkscape:current-layer="Layer_2" />
<g
   id="g63989">
	<path
   d="M50.9,1H16.1c-1.1,0-1.9,0.8-1.9,1.9V96c0,1.1,0.8,1.9,1.9,1.9h34.7c1.1,0,1.9-0.8,1.9-1.9V2.9C52.8,1.8,51.9,1,50.9,1z    M48,93.1l-29-0.1v-2.4h9.6c1.4,0,2.4-1.1,2.4-2.4c0-1.4-1.1-2.4-2.4-2.4H19v-4.7h3.8c1.4,0,2.4-1.1,2.4-2.4c0-1.4-1.1-2.4-2.4-2.4   H19v-4.7h3.8c1.4,0,2.4-1.1,2.4-2.4c0-1.4-1.1-2.4-2.4-2.4L19,66.7v-4.7h9.6c1.4,0,2.4-1.1,2.4-2.4c0-1.4-1.1-2.4-2.4-2.4L19,57.1   v-4.7h3.8c1.4,0,2.4-1.1,2.4-2.4c0-1.4-1.1-2.4-2.4-2.4H19v-4.7h3.8c1.4,0,2.4-1.1,2.4-2.4c0-1.4-1.1-2.4-2.4-2.4H19v-4.7h9.6   c1.4,0,2.4-1.1,2.4-2.4c0-1.4-1.1-2.4-2.4-2.4H19v-4.7h3.8c1.4,0,2.4-1.1,2.4-2.4c0-1.4-1.1-2.4-2.4-2.4H19v-4.7h3.8   c1.4,0,2.4-1.1,2.4-2.4c0-1.4-1.1-2.4-2.4-2.4H19V6.2h29L48,93.1z"
   id="path63985" />
	<path
   d="M83.5,1.1L60.3,1c-1.1,0-2,0.9-1.9,1.9l-0.1,67l13.6,30.1l13.5-30.1V3C85.4,1.9,84.6,1.1,83.5,1.1z M77.5,71.7h1.9   l-7.5,16.6l-7.5-16.6h1.9c1.4,0,2.4-1.1,2.4-2.4c0-1.4-1.1-2.4-2.4-2.4h-3.3V24h17.5l0.1,42.9L77.5,67c-1.4,0-2.4,1.1-2.4,2.4   C75.1,70.7,76.2,71.8,77.5,71.7z M80.7,19.2l-17.6,0.1l0.1-13.4h17.5V19.2z"
   id="path63987" />
</g>
<path
   style="fill:#f3a268;fill-opacity:1;stroke:#441868;stroke-width:0.0802296;stroke-dasharray:none;stroke-opacity:1"
   d="M 71.712462,99.352221 C 71.607026,99.147276 68.550923,92.407526 64.921124,84.375 l -6.599636,-14.604592 0.08718,-33.737245 c 0.08301,-32.1225376 0.0981,-33.7525065 0.31527,-34.0561222 0.125449,-0.1753826 0.423705,-0.4533155 0.66279,-0.6176285 L 59.821429,1.0606613 71.875,1.1047829 c 11.84532,0.043359 12.061207,0.048599 12.495487,0.3032644 0.243053,0.1425285 0.558741,0.4580045 0.701531,0.7010579 0.259115,0.4410644 0.259678,0.5065698 0.292449,34.0255258 l 0.03283,33.583611 -6.645554,14.822002 c -3.655055,8.1521 -6.691011,14.903588 -6.746569,15.003303 -0.07726,0.138661 -0.146102,0.09366 -0.292715,-0.191326 z m 0.410727,-11.373905 c 1.643634,-3.567963 7.277321,-16.129284 7.277321,-16.226098 0,-0.08214 -0.461099,-0.13232 -1.215831,-0.13232 -1.412382,0 -1.870934,-0.151296 -2.446962,-0.807355 -0.673059,-0.766571 -0.718818,-1.851798 -0.116462,-2.762019 0.522047,-0.788867 1.026268,-0.952613 3.077725,-0.999498 0.982142,-0.02245 1.835892,-0.08984 1.897223,-0.149775 0.06352,-0.06207 0.07044,-9.335368 0.01609,-21.547199 L 80.516865,23.915816 H 71.731647 62.946429 V 45.408163 66.90051 h 1.588109 c 2.10286,0 2.771042,0.149968 3.379597,0.758523 0.904379,0.904379 0.944759,2.189273 0.09907,3.152458 -0.578405,0.658767 -1.034048,0.808407 -2.461532,0.808407 -1.117789,0 -1.221873,0.02028 -1.145763,0.223214 0.285692,0.761752 7.419411,16.480672 7.480501,16.483047 0.04135,0.0016 0.147903,-0.154922 0.236776,-0.347843 z m 8.649622,-75.447302 0.03302,-6.7291895 -8.834037,0.032761 -8.834036,0.032761 -0.03302,6.7291905 -0.03302,6.72919 8.834037,-0.03276 8.834036,-0.03276 z"
   id="path64360" /><path
   style="fill:#f3a268;fill-opacity:1;stroke:#441868;stroke-width:0.0802296;stroke-dasharray:none;stroke-opacity:1"
   d="m 15.646598,97.7697 c -0.56441,-0.134694 -1.144004,-0.708768 -1.299826,-1.287445 -0.08243,-0.306135 -0.114904,-16.719338 -0.09363,-47.327504 l 0.03257,-46.8588326 0.305951,-0.4289719 c 0.593273,-0.8318227 -0.590694,-0.7827628 18.890478,-0.7827628 19.525736,0 18.363279,-0.048626 18.874282,0.7895184 0.25696,0.4214664 0.257418,0.5058073 0.257696,47.4885429 2.55e-4,44.555858 -0.01162,47.089907 -0.222737,47.508416 -0.12266,0.243149 -0.42391,0.558838 -0.669445,0.70153 -0.442592,0.257212 -0.597727,0.259611 -18.04847,0.279167 -9.681122,0.01085 -17.793214,-0.0259 -18.026871,-0.08166 z M 48.022959,49.681122 V 6.1862245 H 33.482143 18.941327 V 7.9081633 9.630102 l 2.008928,7.143e-4 c 1.104911,3.954e-4 2.22574,0.06092 2.490731,0.1345091 1.690026,0.4693236 2.243279,2.7135356 0.963525,3.9084366 -0.618144,0.577156 -1.10748,0.675728 -3.354496,0.675728 h -2.108688 v 2.415581 2.415582 l 2.337649,0.03978 c 2.247946,0.03825 2.355365,0.05193 2.799325,0.356461 1.384354,0.949597 1.342211,3.054806 -0.07781,3.886995 -0.536374,0.314337 -0.623267,0.32438 -2.806337,0.32438 H 18.94133 v 2.42347 2.423469 h 5.013221 5.013221 l 0.630912,0.3167 c 0.784166,0.39363 1.223332,1.016119 1.303186,1.847181 0.08067,0.839571 -0.322445,1.681636 -1.028961,2.149382 L 29.3558,33.29082 24.148565,33.32809 18.94133,33.36536 v 2.418091 2.418091 h 2.191871 c 1.964661,0 2.249122,0.02771 2.74415,0.267353 1.576849,0.763339 1.615836,3.167524 0.0655,4.038865 -0.472832,0.265746 -0.664507,0.285618 -2.754855,0.285618 h -2.246663 v 2.42347 2.423469 h 2.108688 c 2.247016,0 2.736352,0.09857 3.354496,0.675731 1.279754,1.1949 0.726501,3.439112 -0.963525,3.908436 -0.264991,0.07359 -1.38582,0.134119 -2.490731,0.134509 l -2.008928,7.12e-4 v 2.416796 2.416796 l 5.133928,0.03856 c 5.768737,0.04333 5.564461,0.01023 6.393603,1.036065 0.345216,0.42711 0.394151,0.585745 0.396178,1.284323 0.0019,0.662672 -0.05824,0.888604 -0.356891,1.340316 -0.676386,1.023033 -0.704338,1.027468 -6.496665,1.030668 l -5.070153,0.0028 v 2.403393 2.403393 l 2.189413,0.08266 c 1.856167,0.07008 2.27385,0.123537 2.74415,0.351205 1.579277,0.764516 1.619703,3.167924 0.06795,4.040055 -0.472832,0.265746 -0.664507,0.285619 -2.754855,0.285619 h -2.246663 v 2.423469 2.42347 l 2.008928,7.65e-4 c 1.104911,3.83e-4 2.222388,0.06 2.483284,0.132453 0.861053,0.239138 1.496669,0.949768 1.671123,1.868347 0.10751,0.566089 -0.220987,1.5779 -0.643755,1.982843 -0.666403,0.638251 -1.115269,0.734979 -3.410892,0.734979 h -2.108688 v 2.419409 2.419408 l 5.271559,0.03595 5.271559,0.03595 0.48212,0.367845 c 0.551532,0.420807 0.958955,1.212874 0.958955,1.864298 0,0.651423 -0.407423,1.443491 -0.958955,1.864297 l -0.48212,0.367845 -5.271559,0.03595 -5.271559,0.03595 v 1.270453 1.270454 l 7.684949,0.0339 c 4.226721,0.01864 10.770089,0.04779 14.540816,0.06477 l 6.855867,0.03087 z"
   id="path64362" /></svg>
