<?xml version="1.0" encoding="UTF-8" standalone="no"?>
<svg
   width="63px"
   height="64px"
   viewBox="0 0 63 64"
   version="1.1"
   id="svg28607"
   sodipodi:docname="pessoa1.svg"
   inkscape:version="1.2-beta (1b65182ce9, 2022-04-05)"
   xmlns:inkscape="http://www.inkscape.org/namespaces/inkscape"
   xmlns:sodipodi="http://sodipodi.sourceforge.net/DTD/sodipodi-0.dtd"
   xmlns="http://www.w3.org/2000/svg"
   xmlns:svg="http://www.w3.org/2000/svg"
   xmlns:rdf="http://www.w3.org/1999/02/22-rdf-syntax-ns#"
   xmlns:cc="http://creativecommons.org/ns#"
   xmlns:dc="http://purl.org/dc/elements/1.1/"
   xmlns:sketch="http://www.bohemiancoding.com/sketch/ns">
  <sodipodi:namedview
     id="namedview28609"
     pagecolor="#ffffff"
     bordercolor="#000000"
     borderopacity="0.25"
     inkscape:pageshadow="2"
     inkscape:pageopacity="0.0"
     inkscape:pagecheckerboard="0"
     inkscape:deskcolor="#d1d1d1"
     showgrid="false"
     inkscape:zoom="12.25"
     inkscape:cx="31.469388"
     inkscape:cy="32"
     inkscape:window-width="1920"
     inkscape:window-height="1001"
     inkscape:window-x="-9"
     inkscape:window-y="-9"
     inkscape:window-maximized="1"
     inkscape:current-layer="svg28607" />
  <!-- Generator: Sketch 3.0.3 (7891) - http://www.bohemiancoding.com/sketch -->
  <title
     id="title28599">Person</title>
  <desc
     id="desc28601">Created with Sketch.</desc>
  <defs
     id="defs28603" />
  <g
     id="Page-1"
     stroke="none"
     stroke-width="1"
     fill="none"
     fill-rule="evenodd"
     sketch:type="MSPage">
    <path
       d="M41.6,44.3 C39,43 35.6,40.6 35.6,38.5 C35.6,37.4 36,36.7 36.4,36.5 C41.4,33.7 43.1,24.5 43.4,24.5 C45.1,24.5 46.3,20.2 46.3,17.4 C46.3,15.1 45.6,15.2 44.4,14.5 L44.4,14.2 C44.4,6.7 38.5,1 31.1,1 C23.8,1 17.5,7 17.5,14.4 L17.5,14.7 C16.3,15.4 15.8,15.8 15.8,18 C15.8,20.9 16.8,24.9 18.5,24.9 C18.8,24.9 21,33.7 25.8,36.7 C26.1,36.9 26.6,37.4 26.6,38.4 C26.6,40.8 23.4,42.9 20.7,44.3 C17.4,46 1,47.4 1,63 L61,63 C61,47.4 45.7,46.4 41.6,44.3 L41.6,44.3 Z"
       id="Person"
       stroke="#6B6C6E"
       stroke-width="2"
       sketch:type="MSShapeGroup" />
  </g>
  <path
     style="fill:#3b3839;fill-opacity:1;stroke-width:0.0816327"
     d="M 0.06622887,62.428571 C 0.09393576,61.586735 0.17474174,60.512245 0.24579771,60.040816 1.2323825,53.495213 5.2708146,48.894079 12.556002,46.01535 c 1.243465,-0.491352 2.791541,-1.001484 5.607263,-1.847738 1.745606,-0.524634 2.863795,-1.045114 4.311231,-2.006734 2.042001,-1.356626 3.116191,-2.603005 3.143468,-3.647356 0.01773,-0.67871 -0.0532,-0.795792 -0.825443,-1.362603 -1.809822,-1.328373 -3.352418,-3.364215 -4.830766,-6.375409 -0.657295,-1.338822 -1.753639,-3.947321 -1.999087,-4.75637 -0.03086,-0.101717 -0.247427,-0.307327 -0.481262,-0.456909 -1.233126,-0.788821 -2.061294,-2.566859 -2.472066,-5.307407 -0.167938,-1.120438 -0.188922,-3.167639 -0.03943,-3.846661 0.150852,-0.685191 0.538717,-1.375329 1.012196,-1.801027 0.221593,-0.199232 0.430914,-0.362238 0.465159,-0.362238 0.03424,0 0.08759,-0.303061 0.118548,-0.673469 0.160924,-1.925497 0.556084,-3.459234 1.309257,-5.0816331 1.212341,-2.6114853 3.462137,-5.0341645 6.05644,-6.5218414 1.375462,-0.7887438 3.172458,-1.43640417 4.803181,-1.73112674 1.243277,-0.22469902 3.682359,-0.20791291 4.967322,0.0341858 3.962286,0.74653074 7.223288,2.89385734 9.382066,6.17796604 0.627833,0.9551106 1.126825,2.0026677 1.524045,3.1994971 0.404085,1.2175203 0.551097,1.9220543 0.674062,3.2303623 l 0.09794,1.042105 0.509154,0.319238 c 0.575754,0.360997 0.931368,0.800899 1.146926,1.418773 0.123051,0.352713 0.146624,0.679414 0.142406,1.973698 -0.0044,1.357139 -0.03234,1.680103 -0.223307,2.58366 -0.544854,2.577934 -1.483292,4.400984 -2.546152,4.946264 -0.308203,0.158118 -0.313709,0.169834 -0.857292,1.824812 -0.706828,2.151984 -1.015923,2.930198 -1.796395,4.522815 -1.275561,2.602884 -2.774076,4.463918 -4.469712,5.55102 -0.576728,0.369751 -0.697983,0.602196 -0.702635,1.346939 -0.0042,0.668062 0.301116,1.190597 1.243661,2.128666 1.571042,1.563582 3.729568,2.85538 5.969131,3.572305 0.561225,0.179658 1.791837,0.571599 2.734694,0.87098 2.3969,0.761076 3.711501,1.262675 5.22449,1.993458 4.197029,2.02719 6.877276,4.549804 8.524994,8.023621 1.074467,2.265251 1.538096,4.335811 1.627462,7.268223 l 0.05163,1.693988 -30.971666,-1.1e-4 -30.97166527,-1.1e-4 z M 59.998673,61.571429 c -0.246126,-2.20833 -0.35139,-2.772182 -0.750555,-4.020409 -1.207888,-3.777164 -3.714769,-6.540025 -7.819547,-8.618003 -1.511251,-0.765046 -2.808469,-1.274026 -5.183673,-2.03388 -1.010204,-0.323175 -2.35102,-0.752472 -2.979592,-0.953993 -2.555464,-0.819289 -5.000619,-2.284711 -6.780051,-4.063396 -0.946668,-0.94627 -1.366435,-1.547167 -1.650864,-2.363214 -0.176193,-0.505509 -0.196491,-0.673852 -0.158487,-1.314452 0.07836,-1.320837 0.423518,-1.949624 1.446545,-2.635215 2.378226,-1.593789 4.01202,-4.287289 5.672829,-9.352317 0.419373,-1.278977 0.738383,-2.117143 0.863477,-2.268694 0.109864,-0.133099 0.37733,-0.303168 0.599407,-0.381133 0.311347,-0.109305 0.459736,-0.22599 0.663601,-0.521818 0.515136,-0.747512 1.017544,-2.2532 1.274771,-3.820415 0.154753,-0.942866 0.141904,-2.858461 -0.02082,-3.103621 -0.07172,-0.10806 -0.475804,-0.38468 -0.897959,-0.614711 L 43.5102,15.087918 43.44669,13.992939 C 43.320512,11.817558 42.918352,10.172986 42.130611,8.6110359 40.459842,5.2981989 37.486576,3.0461352 33.673469,2.2052811 32.850393,2.0237791 30.324638,1.9467022 29.416678,2.0753793 c -4.777552,0.677081 -8.831881,4.0350555 -10.356463,8.5776817 -0.348475,1.038311 -0.505946,1.966742 -0.559257,3.297314 l -0.05198,1.297314 -0.530613,0.321665 c -1.028289,0.623365 -1.083482,0.730464 -1.126423,2.185748 -0.06838,2.317343 0.584964,5.106085 1.391328,5.938776 0.141305,0.145918 0.328029,0.265306 0.414943,0.265306 0.259408,0 0.681538,0.310161 0.8204,0.602792 0.07143,0.150529 0.36609,0.893828 0.6548,1.651775 1.890814,4.963946 3.760112,7.944335 5.943244,9.475846 0.73847,0.518051 0.995297,0.80179 1.278477,1.412444 0.181735,0.391895 0.208093,0.557958 0.207308,1.306122 -7.35e-4,0.692914 -0.03578,0.945448 -0.182926,1.318026 -0.619494,1.568525 -2.132205,3.050083 -4.681651,4.585233 -1.508327,0.908239 -2.233274,1.196389 -5.276165,2.097149 -4.401332,1.302886 -7.198621,2.574667 -9.620856,4.374094 C 6.8831949,51.419797 5.2534965,53.070339 4.6689069,53.893894 3.1475081,56.037202 2.2589144,58.53231 2.035233,61.289062 L 1.9775478,62 H 31.011993 60.04644 Z"
     id="path28974" />
  <metadata
     id="metadata33272">
    <rdf:RDF>
      <cc:Work
         rdf:about="">
        <dc:title>Person</dc:title>
      </cc:Work>
    </rdf:RDF>
  </metadata>
</svg>
