<?xml version="1.0" encoding="UTF-8" standalone="no"?>
<svg
   viewBox="0 0 512 512"
   version="1.1"
   id="svg814"
   sodipodi:docname="telefone2.svg"
   inkscape:version="1.2-beta (1b65182ce9, 2022-04-05)"
   xmlns:inkscape="http://www.inkscape.org/namespaces/inkscape"
   xmlns:sodipodi="http://sodipodi.sourceforge.net/DTD/sodipodi-0.dtd"
   xmlns="http://www.w3.org/2000/svg"
   xmlns:svg="http://www.w3.org/2000/svg">
  <defs
     id="defs818" />
  <sodipodi:namedview
     id="namedview816"
     pagecolor="#ffffff"
     bordercolor="#000000"
     borderopacity="0.25"
     inkscape:pageshadow="2"
     inkscape:pageopacity="0.0"
     inkscape:pagecheckerboard="0"
     inkscape:deskcolor="#d1d1d1"
     showgrid="false"
     inkscape:zoom="1.2409339"
     inkscape:cx="251.82647"
     inkscape:cy="256.25862"
     inkscape:window-width="1920"
     inkscape:window-height="1001"
     inkscape:window-x="-9"
     inkscape:window-y="-9"
     inkscape:window-maximized="1"
     inkscape:current-layer="svg814" />
  <title
     id="title805" />
  <g
     data-name="1"
     id="_1">
    <path
       d="M348.73,450.06a198.63,198.63,0,0,1-46.4-5.85c-52.43-12.65-106.42-44.74-152-90.36s-77.71-99.62-90.36-152C46.65,146.75,56.15,99.61,86.69,69.07l8.72-8.72a42.2,42.2,0,0,1,59.62,0l50.11,50.1a42.18,42.18,0,0,1,0,59.62l-29.6,29.59c14.19,24.9,33.49,49.82,56.3,72.63s47.75,42.12,72.64,56.31L334.07,299a42.15,42.15,0,0,1,59.62,0l50.1,50.1a42.16,42.16,0,0,1,0,59.61l-8.73,8.72C413.53,439,383.73,450.06,348.73,450.06ZM125.22,78a12,12,0,0,0-8.59,3.56l-8.73,8.72c-22.87,22.87-29.55,60-18.81,104.49,11.37,47.13,40.64,96.1,82.41,137.86s90.73,71,137.87,82.41c44.5,10.74,81.61,4.06,104.48-18.81l8.72-8.72a12.16,12.16,0,0,0,0-17.19l-50.09-50.1a12.16,12.16,0,0,0-17.19,0l-37.51,37.51a15,15,0,0,1-17.5,2.72c-30.75-15.9-61.75-39.05-89.65-66.95s-51-58.88-66.94-89.63a15,15,0,0,1,2.71-17.5l37.52-37.51a12.16,12.16,0,0,0,0-17.19l-50.1-50.11A12.07,12.07,0,0,0,125.22,78Z"
       id="path807" />
    <path
       d="M364.75,269.73a15,15,0,0,1-15-15,99.37,99.37,0,0,0-99.25-99.26,15,15,0,0,1,0-30c71.27,0,129.25,58,129.25,129.26A15,15,0,0,1,364.75,269.73Z"
       id="path809" />
    <path
       d="M428.15,269.73a15,15,0,0,1-15-15c0-89.69-73-162.66-162.65-162.66a15,15,0,0,1,0-30c106.23,0,192.65,86.43,192.65,192.66A15,15,0,0,1,428.15,269.73Z"
       id="path811" />
  </g>
  <path
     style="fill:#999999;stroke-width:0.653061"
     d="M 331.7551,448.93744 C 311.37683,446.85121 288.21892,440.88687 265.79592,431.9496 249.28228,425.36765 225.1472,412.39089 208,400.87434 166.77891,373.18907 128.12776,334.15705 101.40058,293.22449 74.584056,252.15509 58.874743,210.49374 55.136369,170.53105 54.174527,160.24909 54.679917,140.92134 56.137493,132.2449 59.562647,111.85614 66.801605,94.412919 77.954698,79.673469 83.004583,72.999758 97.632161,58.481358 102.61178,55.20042 c 7.36875,-4.855069 12.49483,-6.22778 23.10251,-6.186613 7.84255,0.03044 9.3026,0.219624 13.21897,1.712861 9.10669,3.472212 10.60227,4.750417 40.73444,34.814034 23.80423,23.750058 29.27056,29.539378 31.45775,33.316438 7.37218,12.73107 7.8532,26.92267 1.36132,40.16327 -2.58076,5.2636 -3.62094,6.45724 -20.08958,23.05337 l -17.3679,17.50234 1.56374,2.74255 c 7.53285,13.21141 23.0581,34.77668 35.35514,49.1099 8.6926,10.13194 30.76238,32.19162 40.78652,40.76786 15.49762,13.2591 35.69116,27.7662 49.1466,35.30703 l 2.77925,1.55758 17.46564,-17.3255 c 16.2666,-16.13606 17.83389,-17.50848 22.82933,-19.99082 13.36478,-6.64124 27.45394,-6.19121 40.35061,1.28885 3.77181,2.18765 9.59941,7.69088 33.31644,31.46199 30.1087,30.17735 31.41116,31.703 34.77538,40.73445 1.26316,3.39101 1.70904,6.05329 1.94046,11.58632 0.58824,14.06389 -2.93005,22.24979 -14.83956,34.52677 -8.83097,9.10346 -15.21265,14.54928 -22.86619,19.51289 -13.28392,8.61515 -27.21295,13.87497 -44.73469,16.89252 -9.0139,1.55236 -31.30168,2.19641 -41.14286,1.18893 z m 31.03754,-29.38012 c 16.23594,-2.01729 28.6945,-6.36789 40.24641,-14.05427 6.49426,-4.32113 20.0391,-17.11634 21.82511,-20.61722 1.51411,-2.9679 1.68136,-8.9708 0.32126,-11.53051 -1.44775,-2.72465 -54.65894,-55.49103 -56.73814,-56.26384 -2.63814,-0.98056 -6.63739,-0.84237 -9.44785,0.32645 -1.61306,0.67085 -9.44226,7.98628 -23.32596,21.79529 -22.80327,22.68057 -22.74096,22.63413 -29.6928,22.13128 -3.12431,-0.226 -5.08156,-0.99706 -11.59999,-4.56985 -40.71306,-22.3151 -81.69593,-57.46716 -113.9243,-97.71578 -12.8357,-16.02996 -25.92411,-35.68183 -34.31964,-51.52995 -3.01647,-5.69414 -3.53616,-7.19246 -3.53616,-10.19505 0,-1.93593 0.47563,-4.66273 1.05694,-6.05953 0.7319,-1.75864 7.36542,-8.86585 21.57074,-23.11107 13.68908,-13.72752 20.84867,-21.3792 21.52033,-22.99944 1.16814,-2.81788 1.30264,-6.81916 0.3176,-9.44785 -0.80133,-2.13845 -53.5829,-55.324736 -56.3632,-56.795392 -2.53822,-1.342598 -8.13957,-1.305254 -11.04538,0.07364 -3.2584,1.546215 -16.52864,15.367598 -20.723702,21.584412 -6.598484,9.77853 -10.992742,20.98459 -13.569762,34.60503 -1.587481,8.3904 -1.546,32.37488 0.07398,42.77551 6.880785,44.17615 29.887114,90.83751 65.542134,132.93235 17.25526,20.37181 38.97921,40.76304 60.28505,56.58667 39.27757,29.17105 83.32394,47.97485 121.93607,52.05562 7.53002,0.79582 23.27471,0.80833 29.59126,0.0235 z"
     id="path889" />
  <path
     style="fill:#999999;stroke-width:0.653061"
     d="m 359.18367,268.1558 c -6.70135,-3.08683 -8.55672,-6.79342 -9.40891,-18.79677 -0.75172,-10.58818 -1.95507,-17.08649 -4.75642,-25.68556 -12.65067,-38.83266 -47.77995,-65.86043 -88.69181,-68.23772 -9.57676,-0.55648 -10.53731,-0.76103 -13.83702,-2.94667 -7.74473,-5.1299 -8.59666,-16.16067 -1.7505,-22.66539 4.24207,-4.03049 8.63557,-4.72926 21.55914,-3.42891 41.817,4.20756 78.26191,27.5348 99.56176,63.72634 11.19607,19.02374 17.72162,42.79322 17.13586,62.41782 -0.21162,7.08994 -0.303,7.49856 -2.32929,10.41636 -3.94213,5.67655 -11.54169,7.93714 -17.48281,5.2005 z"
     id="path891" />
  <path
     style="fill:#b3b3b3;stroke-width:0.653061"
     d="m 423.30371,268.44159 c -3.88587,-1.38587 -6.35193,-3.73615 -8.2579,-7.87016 -0.85988,-1.86507 -1.32606,-4.94719 -1.62982,-10.77551 -0.91731,-17.60074 -3.54057,-32.29887 -8.31112,-46.56717 -17.8813,-53.48143 -62.50718,-94.21451 -117.4314,-107.187636 -9.40704,-2.221947 -19.35666,-3.551516 -31.34694,-4.188894 -10.81093,-0.574687 -12.53513,-1.055254 -15.91596,-4.436084 -4.30189,-4.301891 -5.55822,-10.858087 -3.11055,-16.232463 1.52991,-3.359216 5.83336,-7.230978 9.0211,-8.116164 4.9414,-1.372146 20.2124,-0.515103 35.4748,1.990925 82.03754,13.470256 146.84947,79.492316 158.97621,161.944496 1.52426,10.36378 2.38861,27.02639 1.59413,30.73093 -1.82783,8.52291 -10.89997,13.61887 -19.06255,10.70773 z"
     id="path893" />
  <path
     style="fill:#b3b3b3;stroke-width:0.653061"
     d="m 330.44898,448.52364 c -35.96081,-4.77686 -67.94655,-16.03295 -103.5102,-36.42625 -62.10254,-35.6115 -120.23519,-98.71423 -148.91672,-161.64841 -15.420492,-33.83627 -22.838387,-64.3999 -22.838387,-94.1 0,-19.37067 1.623121,-30.35334 6.638851,-44.92105 C 68.151318,93.046547 75.081783,82.217483 90.086048,67.265306 105.82679,51.579207 109.8469,49.611345 126.04082,49.665277 c 16.58789,0.05524 17.55596,0.6833 49.20469,31.922602 21.34987,21.073671 34.06963,34.769681 36.46482,39.263511 3.06549,5.75145 4.77947,12.6523 4.77947,19.24317 0,6.94276 -1.20098,11.79983 -4.66891,18.88236 -2.54583,5.19933 -3.66481,6.48669 -19.99575,23.00451 l -17.29901,17.49698 2.80795,4.75059 c 7.76398,13.13539 23.6339,34.98637 34.7544,47.85263 9.988,11.55598 37.60424,38.37577 48.15642,46.7676 14.86636,11.82276 28.61344,21.49736 39.71848,27.95215 l 4.77969,2.77819 17.50402,-17.30597 c 17.20886,-17.01415 17.60729,-17.35553 23.62846,-20.24499 7.1593,-3.43562 11.04997,-4.35514 18.42755,-4.35514 6.51925,0 11.61375,1.22085 17.89861,4.28921 3.83376,1.87171 6.80981,4.26961 15.67347,12.62861 13.30561,12.54807 41.40843,41.03003 47.32045,47.95888 7.16587,8.39835 9.66151,15.22584 9.66151,26.43154 0,13.56901 -3.08795,20.01269 -15.97088,33.32666 -10.62275,10.97817 -20.43441,18.36631 -32.16942,24.22348 -12.38067,6.17942 -27.87251,10.52314 -41.98533,11.77218 -7.12017,0.63015 -30.08446,0.77727 -34.28253,0.21961 z m 41.79592,-30.16136 c 11.70243,-2.51433 22.20579,-6.74267 30.50659,-12.28103 7.6751,-5.12089 20.43441,-17.24714 22.54686,-21.42819 0.36295,-0.71837 0.70734,-3.43116 0.76532,-6.02843 l 0.10541,-4.7223 -5.83744,-6.37974 c -6.14759,-6.7187 -30.99356,-31.41334 -44.02902,-43.76086 l -7.69739,-7.29115 -4.54653,0.0144 c -4.27318,0.0135 -4.73638,0.16444 -7.70424,2.51041 -1.73676,1.37282 -11.43991,10.60843 -21.56259,20.52359 -10.12267,9.91515 -19.56276,18.7938 -20.97797,19.73035 -5.63959,3.7321 -11.62801,1.96999 -29.137,-8.57368 C 243.84989,326.0902 204.58009,290.372 174.33549,250.31363 c -11.23781,-14.88424 -21.79222,-31.28814 -28.23376,-43.88151 -2.56444,-5.01356 -3.03347,-6.50366 -3.00098,-9.53412 0.0212,-1.97551 0.5162,-4.51329 1.10004,-5.6395 0.58384,-1.12621 9.4707,-10.65683 19.74858,-21.17915 24.30895,-24.88708 23.40219,-23.75073 23.70283,-29.70425 l 0.23956,-4.74404 -7.70736,-8.06041 c -13.07049,-13.66922 -34.849,-35.57032 -42.22046,-42.458105 -8.01221,-7.486507 -9.88613,-8.308017 -16.03794,-7.030904 -3.37502,0.700649 -4.0275,1.187823 -10.92884,8.159936 C 99.3851,97.972675 93.665314,106.6529 89.265726,119.22068 c -2.298443,6.56569 -4.82132,17.72649 -4.640369,20.52824 0.06981,1.08095 -0.09979,2.49958 -0.376893,3.15251 -0.852329,2.0083 0.116482,30.89627 1.25967,37.56077 6.961305,40.58264 27.737096,83.96278 58.864216,122.90928 24.93488,31.19872 56.67454,59.51919 89.29136,79.67233 30.46596,18.82419 62.59967,31.24331 92.8669,35.89146 11.40864,1.75202 36.34787,1.43943 45.71429,-0.57299 z"
     id="path964" />
  <path
     style="fill:#b3b3b3;stroke-width:0.653061"
     d="m 358.09654,267.08743 c -1.67548,-0.87254 -3.6535,-2.43914 -4.3956,-3.48133 -1.63327,-2.29371 -3.33359,-8.51942 -3.33359,-12.20589 0,-1.481 -0.16099,-2.85372 -0.35776,-3.05048 -0.19676,-0.19676 -0.46837,-2.37636 -0.60357,-4.84354 -0.74391,-13.57486 -6.87554,-30.56251 -16.13744,-44.70872 -5.37335,-8.20703 -18.24023,-21.08925 -26.62153,-26.65326 -15.5636,-10.33207 -30.76931,-15.42425 -50.87926,-17.03878 -9.7704,-0.78442 -12.27405,-1.67503 -15.7101,-5.58848 -2.68655,-3.05981 -3.3264,-4.79799 -3.30865,-8.98804 0.0249,-5.88105 3.3437,-10.94423 8.61774,-13.14733 4.98091,-2.08064 21.39365,-0.87849 35.12302,2.57259 9.91786,2.49301 16.05129,4.71886 25.46938,9.24295 36.06558,17.32452 61.49408,49.6317 70.30976,89.32928 2.11513,9.52456 2.93267,29.02181 1.34561,32.09084 -3.7591,7.2693 -12.45083,10.1506 -19.51801,6.47019 z"
     id="path966" />
  <path
     style="fill:#333333;stroke-width:0.653061"
     d="m 422.53061,267.65136 c -6.27376,-3.30161 -7.90322,-6.8446 -8.8365,-19.21354 -1.4273,-18.91631 -4.39194,-34.44051 -9.15311,-47.92992 -13.91564,-39.42596 -43.03424,-72.46624 -80.62263,-91.48083 -20.68066,-10.461582 -39.34122,-15.427332 -64.97959,-17.291677 -12.18319,-0.885925 -14.34703,-1.38814 -17.35318,-4.027572 -7.875,-6.914348 -6.14365,-18.79793 3.44319,-23.633267 4.00412,-2.019561 24.11871,-1.066881 40.03243,1.896041 22.83433,4.251445 46.78152,13.560753 66.19615,25.733303 31.05477,19.470662 55.26421,46.213582 71.28519,78.745082 11.54236,23.43739 17.51649,45.70649 19.35925,72.16326 0.8688,12.47345 0.5382,15.70825 -2.01718,19.73767 -3.42909,5.40713 -12.11254,8.05982 -17.35402,5.30145 z"
     id="path968" />
  <path
     style="fill:#333333;stroke-width:0.653061"
     d="m 359.605,267.41707 c -6.57013,-2.77752 -8.25097,-6.82656 -9.89034,-23.82523 -1.49446,-15.49623 -6.88455,-30.41504 -16.16241,-44.7347 -4.48261,-6.91855 -19.34745,-21.93919 -26.28694,-26.56244 -15.42181,-10.27438 -28.38069,-14.81685 -48.9796,-17.16878 -5.92653,-0.67668 -11.65714,-1.56466 -12.73469,-1.97328 -2.38525,-0.90452 -5.96258,-4.23348 -7.3047,-6.79752 -1.13321,-2.16493 -1.2976,-8.36653 -0.29091,-10.97404 1.07957,-2.79626 5.18339,-6.91151 7.73068,-7.75219 5.99942,-1.97999 24.0778,-0.27698 38.20273,3.59874 38.03057,10.43517 69.32329,37.84404 84.66863,74.16013 6.3473,15.02143 9.25842,28.9844 9.34032,44.80014 0.0553,10.6778 -0.48951,12.25609 -5.40692,15.66386 -2.20051,1.52495 -3.49666,1.90194 -7.02326,2.04276 -2.3786,0.095 -5.01677,-0.11988 -5.86259,-0.47745 z"
     id="path1053" />
  <path
     style="fill:#4d4d4d;stroke-width:0.653061"
     d="M 320,446.66277 C 244.11645,433.1097 169.43512,383.43435 113.8678,309.55102 89.581279,277.25921 71.343322,240.55641 62.072522,205.31613 56.944313,185.82271 54.854406,165.49241 55.891993,145.19288 56.705768,129.27207 58.710171,120.13731 64.814102,104.53177 70.26597,90.593304 76.673944,81.381184 90.770737,67.216436 105.08542,52.83275 109.18464,50.636031 122.69561,50.108293 c 15.28586,-0.597063 19.64322,1.048576 31.91878,12.0547 8.79065,7.881587 46.06396,45.458377 51.64066,52.061107 7.12728,8.43859 9.63936,15.16055 9.69261,25.93602 0.0341,6.91283 -0.96561,11.30592 -4.05393,17.81327 -2.58216,5.44085 -4.96461,8.18406 -22.31541,25.6945 -11.16276,11.26547 -14.95845,15.48879 -14.72449,16.38341 0.96034,3.67238 18.66089,29.45074 29.79144,43.38705 14.50284,18.15869 41.46859,44.70679 60.37951,59.44435 15.33341,11.94955 37.15068,26.58669 39.62858,26.58669 0.45278,0 8.6461,-7.72107 18.20738,-17.15792 15.7891,-15.58361 17.83356,-17.37545 22.28212,-19.5288 7.44936,-3.60593 11.6633,-4.6117 19.24011,-4.59219 5.38813,0.0139 7.59255,0.33937 11.81444,1.74448 6.66509,2.21823 10.12651,4.53831 19.2831,12.92487 11.3537,10.39891 47.82118,47.54125 51.25516,52.2037 6.07953,8.25439 7.53306,12.95515 7.53397,24.36504 0.001,13.29901 -2.62975,18.89384 -14.91068,31.70998 -15.58001,16.259 -30.11522,25.59641 -49.15488,31.57705 -14.60317,4.58709 -18.29337,5.06974 -40.81632,5.33853 -19.3009,0.23032 -20.67123,0.16545 -29.38776,-1.39136 z m 52.57143,-28.05196 c 17.75127,-3.88596 30.59547,-10.8563 44.12744,-23.94723 8.55725,-8.27837 9.31652,-9.53506 9.48511,-15.69923 0.13451,-4.91833 0.0827,-5.10091 -2.22493,-7.83674 -4.12571,-4.89133 -21.77781,-22.73669 -38.57128,-38.9936 l -16.24489,-15.72585 h -4.53274 c -2.49301,0 -5.17465,0.33698 -5.95919,0.74884 -2.22267,1.16681 -4.8625,3.58369 -21.99789,20.14003 -25.50632,24.6444 -25.03152,24.29171 -31.01257,23.03717 -12.49313,-2.62046 -47.28896,-25.76036 -74.53101,-49.56455 -11.56687,-10.10717 -33.77123,-32.68598 -42.94341,-43.66761 -17.18712,-20.57772 -32.89782,-43.47126 -41.9895,-61.18689 -2.08103,-4.055 -2.4532,-5.41796 -2.47612,-9.06803 -0.0229,-3.65391 0.22858,-4.62964 1.68352,-6.53061 0.94077,-1.22918 10.22441,-11.08746 20.63031,-21.90727 10.4059,-10.81981 19.51881,-20.66471 20.25093,-21.87755 0.84151,-1.39408 1.45275,-3.82651 1.66183,-6.61332 l 0.33072,-4.40815 -18.37378,-18.88045 c -19.1212,-19.648476 -32.51553,-32.736773 -37.38355,-36.529419 -3.31625,-2.583661 -6.95681,-3.244538 -11.35264,-2.060864 -2.2804,0.614048 -4.18952,2.023837 -8.71371,6.434645 -14.66925,14.30159 -21.241405,25.361478 -26.058559,43.852398 -1.855965,7.12423 -1.9737,8.35768 -2.290829,24 -0.190421,9.39244 -0.08532,16.4898 0.244184,16.4898 0.318172,0 0.471831,1.34112 0.341464,2.98027 -0.324164,4.07583 0.86786,11.70628 3.509234,22.46351 9.741828,39.67449 30.538366,78.85348 61.725886,116.28657 8.281,9.93934 31.53066,33.35981 41.76801,42.07488 40.76501,34.70329 87.20296,58.22671 129.62841,65.66407 10.40269,1.82363 10.78569,1.84462 29.392,1.61079 12.66125,-0.15911 18.22526,-0.48608 21.87755,-1.28561 z"
     id="path1055" />
  <path
     style="fill:#4d4d4d;stroke-width:0.653061"
     d="M 318.62402,446.10457 C 274.5822,437.5262 232.68056,418.36834 192.97959,388.65865 173.99271,374.45008 146.76008,348.82384 131.21951,330.54167 93.46362,286.12504 69.29906,239.69051 59.724405,193.15694 c -4.377131,-21.27321 -4.903644,-48.98562 -1.2695,-66.81867 3.07512,-15.08987 10.519933,-32.242839 18.746331,-43.191849 5.96998,-7.945805 21.784357,-23.99097 27.106194,-27.501764 6.59149,-4.348383 7.96332,-4.652999 21.08033,-4.680888 11.33607,-0.0241 11.88314,0.03564 15.34693,1.676087 6.1182,2.897557 11.45687,7.480949 29.96699,25.727491 22.22238,21.905933 35.98637,36.487523 39.34121,41.678103 3.81378,5.90066 5.39014,11.73604 5.41257,20.03618 0.0142,5.26785 -0.31299,7.91667 -1.4118,11.42857 -2.58435,8.25979 -5.28632,11.80653 -22.55093,29.60142 -8.8994,9.17276 -16.35082,17.35545 -16.55872,18.18377 -0.27659,1.10206 0.61896,3.12837 3.33871,7.55429 8.11573,13.20695 24.2652,35.17692 33.7287,45.88501 11.14816,12.61433 35.47371,36.18627 48.24348,46.74891 13.91078,11.50643 41.05164,29.98579 44.04049,29.98579 0.92921,0 7.16241,-5.58547 18.86215,-16.90204 12.57076,-12.15908 18.52097,-17.45792 21.2042,-18.88297 14.77872,-7.84893 30.17813,-6.84432 43.2401,2.82085 5.05077,3.73731 52.2876,50.87056 57.62815,57.50178 7.36246,9.14178 9.71348,17.77293 8.38314,30.77636 -1.06321,10.39233 -5.48531,17.5046 -18.87317,30.3546 -14.33072,13.75496 -27.22752,21.60162 -44.87529,27.30298 -13.5736,4.38513 -16.03662,4.68438 -40.79345,4.95624 -21.54938,0.23665 -22.87495,0.18035 -30.4372,-1.29262 z m 58.84537,-28.41444 c 9.611,-2.50881 21.50873,-8.15526 28.8118,-13.67355 7.05089,-5.32774 15.39808,-13.206 17.74306,-16.74628 2.53072,-3.82069 3.34225,-10.03517 1.80214,-13.80021 -0.74217,-1.81436 -8.79496,-10.25376 -28.43163,-29.79662 l -27.3962,-27.26531 h -5.4254 c -4.02286,0 -5.84282,0.28548 -7.04009,1.10429 -2.34537,1.60398 -7.69732,6.56372 -24.65483,22.848 -8.29491,7.96559 -16.63955,15.71435 -18.54366,17.21946 -3.3349,2.63608 -3.59718,2.72429 -7.14408,2.40267 -10.29257,-0.93329 -41.25917,-20.63432 -70.12928,-44.61642 -10.70558,-8.89302 -39.64815,-37.82341 -48.61111,-48.59065 -17.83361,-21.4236 -39.69226,-53.94433 -43.48629,-64.69776 -1.16118,-3.29113 -1.21678,-8.23324 -0.11493,-10.2157 0.44144,-0.79424 9.36198,-10.4922 19.82342,-21.55102 10.46144,-11.05882 19.77626,-21.0173 20.69963,-22.12994 1.84192,-2.21952 2.99552,-6.24831 3.02026,-10.54789 l 0.016,-2.77497 -26.61224,-26.73123 c -14.9215,-14.988209 -28.03114,-27.61159 -29.84214,-28.735238 -3.75509,-2.32986 -8.78278,-2.717809 -12.48068,-0.963038 -5.12789,2.433345 -17.46032,15.721858 -23.30895,25.116016 -3.902259,6.26786 -6.47977,12.38896 -9.403422,22.33136 -2.326009,7.91001 -2.356528,8.16937 -2.670423,22.69533 -0.425541,19.69254 0.490443,31.71946 3.332442,43.7551 9.102767,38.54953 27.980603,75.4475 57.802903,112.97959 9.48455,11.93653 40.6355,43.29588 52.32537,52.67543 40.7729,32.71477 82.98066,53.26078 125.24986,60.96949 6.18957,1.1288 9.28862,1.24743 26.91341,1.03023 19.8463,-0.24458 19.94672,-0.25287 27.7551,-2.29114 z"
     id="path1126" />
  <path
     style="fill:#4d4d4d;stroke-width:0.653061"
     d="m 357.37802,265.77369 c -4.23115,-2.87515 -5.48514,-6.56665 -7.32117,-21.55232 -1.28254,-10.46808 -2.91467,-17.49609 -5.7954,-24.95525 -4.87478,-12.62242 -10.09446,-21.2246 -18.12658,-29.87311 -9.12638,-9.82675 -16.4896,-16.18004 -23.79665,-20.53274 -14.09336,-8.39519 -23.35137,-11.27719 -46.16985,-14.37259 -5.29515,-0.7183 -10.48198,-1.74785 -11.52629,-2.28788 -7.42983,-3.84211 -9.37123,-14.05166 -3.8646,-20.32337 3.56808,-4.06381 5.08769,-4.53885 14.24293,-4.45247 22.23096,0.20975 45.90043,7.88475 66.28571,21.49363 18.41711,12.29495 32.97346,28.76896 42.99391,48.65791 8.87085,17.60717 12.82273,33.22783 13.04608,51.56736 0.14362,11.7928 -0.31756,13.22612 -5.26509,16.36375 -2.61813,1.66037 -3.65921,1.92196 -7.64912,1.92196 -3.86686,0 -5.01485,-0.26932 -7.05388,-1.65488 z"
     id="path1128" />
  <path
     style="fill:#333333;stroke-width:0.653061"
     d="m 424.92714,268.05162 c -3.08117,-0.67936 -6.72246,-3.78897 -8.41585,-7.18702 -1.13486,-2.27725 -1.73443,-5.65871 -2.77319,-15.64011 -0.7289,-7.00408 -1.7951,-15.52653 -2.36932,-18.93878 -9.92116,-58.95559 -53.4573,-108.89382 -111.00434,-127.327776 -12.2448,-3.922359 -22.47862,-5.788506 -41.35934,-7.541918 -6.24924,-0.580354 -12.50085,-1.510765 -13.89247,-2.067581 -5.04404,-2.018226 -9.08284,-9.17019 -8.0038,-14.173249 1.03922,-4.818438 4.68484,-9.399772 8.73191,-10.97309 2.49248,-0.968967 18.30025,-0.731644 27.5972,0.414317 51.90904,6.398413 99.92692,34.555973 130.92032,76.771347 14.20051,19.34217 26.00627,43.95865 31.53411,65.75255 5.24417,20.67549 7.52327,46.53604 4.6574,52.84664 -2.67402,5.88816 -9.50381,9.41381 -15.62263,8.06467 z"
     id="path1130" />
  <path
     style="fill:#333333;stroke-width:0.653061"
     d="m 424.92714,268.05162 c -3.081,-0.67933 -6.72233,-3.78883 -8.41622,-7.18702 -1.13903,-2.28505 -1.73614,-5.67437 -2.79651,-15.8736 -2.18573,-21.02359 -4.8885,-33.71632 -10.22575,-48.02206 -18.0145,-48.28532 -61.24161,-87.35544 -110.94173,-100.272877 -8.57869,-2.229669 -20.21443,-4.064934 -33.54183,-5.290436 -6.24924,-0.574639 -12.50085,-1.500376 -13.89247,-2.057192 -3.3852,-1.354489 -6.79202,-5.459847 -7.7115,-9.292679 -0.98866,-4.121189 0.0747,-8.303467 2.97174,-11.687996 3.62408,-4.233922 5.65873,-4.846416 15.94281,-4.799287 44.31208,0.20307 91.99464,20.232904 126.34726,53.074217 29.3499,28.05869 49.94307,66.71832 56.49194,106.05247 2.92268,17.55441 3.48852,32.68166 1.39489,37.29179 -2.67402,5.88816 -9.50381,9.41381 -15.62263,8.06467 z"
     id="path1201" />
  <path
     style="fill:#333333;stroke-width:0.653061"
     d="m 361.46939,266.80312 c -3.2277,-0.61969 -4.91021,-1.66422 -6.617,-4.10792 -0.81584,-1.16807 -1.64444,-2.27071 -1.84133,-2.4503 -0.1969,-0.17959 -0.44153,-1.3551 -0.54361,-2.61225 -0.10209,-1.25714 -0.47127,-2.38428 -0.8204,-2.50475 -0.34913,-0.12048 -0.48971,-0.45378 -0.3124,-0.74067 0.50071,-0.81017 -2.19506,-19.32514 -3.66368,-25.16274 -1.56673,-6.22759 -6.37628,-18.61225 -7.22802,-18.61225 -0.33092,0 -0.42004,-0.29387 -0.19805,-0.65306 0.22199,-0.35918 0.14137,-0.65306 -0.17915,-0.65306 -0.32052,0 -0.58276,-0.37915 -0.58276,-0.84254 0,-1.23089 -5.38931,-10.2595 -6.12404,-10.2595 -0.34334,0 -0.62426,-0.34269 -0.62426,-0.76154 0,-0.77437 -0.29775,-1.16007 -3.86227,-5.00298 -1.1084,-1.19498 -2.01528,-2.39077 -2.01528,-2.65733 0,-0.54568 -9.89484,-10.15704 -14.43541,-14.02184 -4.11026,-3.49854 -11.22743,-8.20771 -11.8361,-7.83153 -0.2772,0.17132 -0.504,0.0463 -0.504,-0.2778 0,-1.54327 -22.29966,-10.71194 -23.39328,-9.61832 -0.15876,0.15876 -0.7903,0.0202 -1.40343,-0.30796 -1.00728,-0.53908 -15.2801,-3.11202 -17.65227,-3.18216 -3.00773,-0.0889 -12.30378,-2.27196 -13.8538,-3.25336 -2.04331,-1.29373 -5.08497,-5.14386 -5.08497,-6.43654 0,-0.469 -0.23123,-0.85272 -0.51385,-0.85272 -0.85256,0 0.17372,-7.36351 1.32903,-9.53571 1.79927,-3.38298 5.31198,-5.99723 8.7514,-6.513 3.50526,-0.52565 21.21048,0.3638 23.73954,1.19259 0.53878,0.17656 3.91837,0.98525 7.5102,1.7971 8.83155,1.99616 17.38293,5.11937 26.77551,9.77918 27.78772,13.78595 49.16767,36.36724 61.24612,64.68755 2.95882,6.93752 6.34572,16.87879 6.34572,18.626 0,0.52024 0.22041,0.94793 0.4898,0.95043 0.26938,0.003 0.55438,1.39545 0.63332,3.09546 0.0789,1.7 0.38674,3.17199 0.68399,3.27107 0.29725,0.0991 0.42092,1.20409 0.27482,2.45556 -0.14611,1.25147 -0.0131,2.27559 0.2956,2.27582 0.30869,2.3e-4 0.56125,5.37411 0.56125,11.94196 0,10.33342 -0.15605,12.1804 -1.15872,13.71511 -2.58453,3.95591 -8.66187,6.125 -14.18822,5.064 z"
     id="path1203" />
  <path
     style="fill:#3b3839;stroke-width:0.653061;fill-opacity:1"
     d="m 324.89796,447.25803 c -13.46864,-2.59707 -22.99859,-4.78287 -31.17327,-7.14995 C 228.44738,421.20625 165.36511,375.80824 116.97673,312.90902 84.477575,270.66393 62.777119,221.94099 57.51127,179.39423 c -2.268344,-18.32766 -1.89875,-39.10814 0.943635,-53.05596 2.663343,-13.06925 9.359641,-29.591899 15.973812,-39.414279 6.912944,-10.266072 24.702598,-28.465999 32.010443,-32.74868 4.87999,-2.859863 9.93839,-3.699709 20.8203,-3.456789 11.32942,0.25291 13.50658,0.948614 21.31197,6.810181 4.86772,3.655484 38.62881,36.795148 50.78899,49.854137 9.47271,10.17288 12.70899,14.86041 14.66632,21.2431 1.98915,6.48649 1.99659,16.55705 0.0169,22.88426 -2.44601,7.81764 -5.51937,12.09217 -17.80996,24.77064 -16.58894,17.11247 -21.53981,22.55708 -21.53981,23.68792 0,3.0947 20.89786,33.13639 34.0298,48.9195 6.92361,8.32139 35.92078,37.28391 45.64367,45.58913 13.1617,11.24263 35.75,27.58018 46.1541,33.3821 2.97482,1.65893 3.56492,1.78438 4.93764,1.04973 0.85747,-0.45891 9.14152,-8.14236 18.40901,-17.07433 13.43254,-12.94624 17.72916,-16.69937 21.18482,-18.50511 14.39242,-7.52072 29.80721,-6.35089 42.53892,3.22825 9.17773,6.90519 56.67153,55.06633 61.04424,61.90199 4.50402,7.04092 6.19155,16.11704 4.97117,26.7367 -1.16065,10.09986 -5.56237,17.11284 -18.61944,29.66516 -14.8729,14.29796 -27.04239,21.73465 -45.12805,27.57743 -13.61816,4.39951 -16.02082,4.68937 -40.79854,4.922 -12.39183,0.11635 -23.2653,0.0699 -24.16326,-0.10328 z m 49.95918,-28.8745 c 16.21856,-4.06691 28.0523,-10.57547 41.26754,-22.69716 7.32622,-6.71998 9.1795,-9.39832 10.09347,-14.58705 1.34429,-7.63164 2.42326,-6.22846 -28.52758,-37.09932 l -27.66333,-27.59184 h -5.49698 c -4.65518,0 -5.78549,0.21982 -7.38096,1.43539 -2.48795,1.89554 -8.09978,7.12116 -25.21186,23.47677 -7.80175,7.45686 -15.73298,14.78153 -17.62494,16.27704 -3.30334,2.61114 -3.58481,2.70596 -7.08923,2.38819 -10.41091,-0.94402 -41.27118,-20.56597 -70.16205,-44.61127 -10.93107,-9.09771 -39.78646,-37.97073 -48.89541,-48.9253 -17.53258,-21.08493 -37.47676,-50.55815 -42.64518,-63.02041 -1.64407,-3.96422 -1.95317,-9.26107 -0.67465,-11.56108 0.43984,-0.79125 9.46616,-10.60101 20.0585,-21.79947 10.59233,-11.19846 19.94354,-21.31818 20.78046,-22.48826 1.73843,-2.43048 2.68508,-5.91711 2.70764,-9.9726 l 0.0156,-2.801 -27.2653,-27.29612 C 132.04064,78.374925 130.8493,77.387755 124.79047,77.387755 c -4.71059,0 -7.24445,1.572803 -14.74965,9.15529 -11.882478,12.004836 -18.011424,22.021575 -22.465574,36.716235 -2.969006,9.79502 -3.660326,15.65113 -3.641413,30.84604 0.02742,22.03149 1.325824,31.82244 6.622205,49.93653 10.647252,36.41455 31.875672,74.58511 59.586552,107.14182 8.13623,9.55903 37.18699,38.41177 45.44925,45.13944 41.45585,33.75611 85.23859,55.21218 127.87749,62.66734 6.05243,1.05823 9.58236,1.18599 26.57149,0.96175 16.8668,-0.22263 20.31851,-0.44081 24.81632,-1.56867 z"
     id="path1205" />
</svg>
