<?xml version="1.0" encoding="UTF-8" standalone="no"?>
<svg
   viewBox="0 0 512 512"
   version="1.1"
   id="svg814"
   sodipodi:docname="telefone1.svg"
   inkscape:version="1.2-beta (1b65182ce9, 2022-04-05)"
   xmlns:inkscape="http://www.inkscape.org/namespaces/inkscape"
   xmlns:sodipodi="http://sodipodi.sourceforge.net/DTD/sodipodi-0.dtd"
   xmlns="http://www.w3.org/2000/svg"
   xmlns:svg="http://www.w3.org/2000/svg">
  <defs
     id="defs818" />
  <sodipodi:namedview
     id="namedview816"
     pagecolor="#ffffff"
     bordercolor="#000000"
     borderopacity="0.25"
     inkscape:pageshadow="2"
     inkscape:pageopacity="0.0"
     inkscape:pagecheckerboard="0"
     inkscape:deskcolor="#d1d1d1"
     showgrid="false"
     inkscape:zoom="1.53125"
     inkscape:cx="255.67347"
     inkscape:cy="256"
     inkscape:window-width="1920"
     inkscape:window-height="1001"
     inkscape:window-x="-9"
     inkscape:window-y="-9"
     inkscape:window-maximized="1"
     inkscape:current-layer="svg814" />
  <title
     id="title805" />
  <g
     data-name="1"
     id="_1">
    <path
       d="M348.73,450.06a198.63,198.63,0,0,1-46.4-5.85c-52.43-12.65-106.42-44.74-152-90.36s-77.71-99.62-90.36-152C46.65,146.75,56.15,99.61,86.69,69.07l8.72-8.72a42.2,42.2,0,0,1,59.62,0l50.11,50.1a42.18,42.18,0,0,1,0,59.62l-29.6,29.59c14.19,24.9,33.49,49.82,56.3,72.63s47.75,42.12,72.64,56.31L334.07,299a42.15,42.15,0,0,1,59.62,0l50.1,50.1a42.16,42.16,0,0,1,0,59.61l-8.73,8.72C413.53,439,383.73,450.06,348.73,450.06ZM125.22,78a12,12,0,0,0-8.59,3.56l-8.73,8.72c-22.87,22.87-29.55,60-18.81,104.49,11.37,47.13,40.64,96.1,82.41,137.86s90.73,71,137.87,82.41c44.5,10.74,81.61,4.06,104.48-18.81l8.72-8.72a12.16,12.16,0,0,0,0-17.19l-50.09-50.1a12.16,12.16,0,0,0-17.19,0l-37.51,37.51a15,15,0,0,1-17.5,2.72c-30.75-15.9-61.75-39.05-89.65-66.95s-51-58.88-66.94-89.63a15,15,0,0,1,2.71-17.5l37.52-37.51a12.16,12.16,0,0,0,0-17.19l-50.1-50.11A12.07,12.07,0,0,0,125.22,78Z"
       id="path807" />
    <path
       d="M364.75,269.73a15,15,0,0,1-15-15,99.37,99.37,0,0,0-99.25-99.26,15,15,0,0,1,0-30c71.27,0,129.25,58,129.25,129.26A15,15,0,0,1,364.75,269.73Z"
       id="path809" />
    <path
       d="M428.15,269.73a15,15,0,0,1-15-15c0-89.69-73-162.66-162.65-162.66a15,15,0,0,1,0-30c106.23,0,192.65,86.43,192.65,192.66A15,15,0,0,1,428.15,269.73Z"
       id="path811" />
  </g>
  <path
     style="fill:#999999;stroke-width:0.653061"
     d="M 331.7551,448.93744 C 311.37683,446.85121 288.21892,440.88687 265.79592,431.9496 249.28228,425.36765 225.1472,412.39089 208,400.87434 166.77891,373.18907 128.12776,334.15705 101.40058,293.22449 74.584056,252.15509 58.874743,210.49374 55.136369,170.53105 54.174527,160.24909 54.679917,140.92134 56.137493,132.2449 59.562647,111.85614 66.801605,94.412919 77.954698,79.673469 83.004583,72.999758 97.632161,58.481358 102.61178,55.20042 c 7.36875,-4.855069 12.49483,-6.22778 23.10251,-6.186613 7.84255,0.03044 9.3026,0.219624 13.21897,1.712861 9.10669,3.472212 10.60227,4.750417 40.73444,34.814034 23.80423,23.750058 29.27056,29.539378 31.45775,33.316438 7.37218,12.73107 7.8532,26.92267 1.36132,40.16327 -2.58076,5.2636 -3.62094,6.45724 -20.08958,23.05337 l -17.3679,17.50234 1.56374,2.74255 c 7.53285,13.21141 23.0581,34.77668 35.35514,49.1099 8.6926,10.13194 30.76238,32.19162 40.78652,40.76786 15.49762,13.2591 35.69116,27.7662 49.1466,35.30703 l 2.77925,1.55758 17.46564,-17.3255 c 16.2666,-16.13606 17.83389,-17.50848 22.82933,-19.99082 13.36478,-6.64124 27.45394,-6.19121 40.35061,1.28885 3.77181,2.18765 9.59941,7.69088 33.31644,31.46199 30.1087,30.17735 31.41116,31.703 34.77538,40.73445 1.26316,3.39101 1.70904,6.05329 1.94046,11.58632 0.58824,14.06389 -2.93005,22.24979 -14.83956,34.52677 -8.83097,9.10346 -15.21265,14.54928 -22.86619,19.51289 -13.28392,8.61515 -27.21295,13.87497 -44.73469,16.89252 -9.0139,1.55236 -31.30168,2.19641 -41.14286,1.18893 z m 31.03754,-29.38012 c 16.23594,-2.01729 28.6945,-6.36789 40.24641,-14.05427 6.49426,-4.32113 20.0391,-17.11634 21.82511,-20.61722 1.51411,-2.9679 1.68136,-8.9708 0.32126,-11.53051 -1.44775,-2.72465 -54.65894,-55.49103 -56.73814,-56.26384 -2.63814,-0.98056 -6.63739,-0.84237 -9.44785,0.32645 -1.61306,0.67085 -9.44226,7.98628 -23.32596,21.79529 -22.80327,22.68057 -22.74096,22.63413 -29.6928,22.13128 -3.12431,-0.226 -5.08156,-0.99706 -11.59999,-4.56985 -40.71306,-22.3151 -81.69593,-57.46716 -113.9243,-97.71578 -12.8357,-16.02996 -25.92411,-35.68183 -34.31964,-51.52995 -3.01647,-5.69414 -3.53616,-7.19246 -3.53616,-10.19505 0,-1.93593 0.47563,-4.66273 1.05694,-6.05953 0.7319,-1.75864 7.36542,-8.86585 21.57074,-23.11107 13.68908,-13.72752 20.84867,-21.3792 21.52033,-22.99944 1.16814,-2.81788 1.30264,-6.81916 0.3176,-9.44785 -0.80133,-2.13845 -53.5829,-55.324736 -56.3632,-56.795392 -2.53822,-1.342598 -8.13957,-1.305254 -11.04538,0.07364 -3.2584,1.546215 -16.52864,15.367598 -20.723702,21.584412 -6.598484,9.77853 -10.992742,20.98459 -13.569762,34.60503 -1.587481,8.3904 -1.546,32.37488 0.07398,42.77551 6.880785,44.17615 29.887114,90.83751 65.542134,132.93235 17.25526,20.37181 38.97921,40.76304 60.28505,56.58667 39.27757,29.17105 83.32394,47.97485 121.93607,52.05562 7.53002,0.79582 23.27471,0.80833 29.59126,0.0235 z"
     id="path889" />
  <path
     style="fill:#999999;stroke-width:0.653061"
     d="m 359.18367,268.1558 c -6.70135,-3.08683 -8.55672,-6.79342 -9.40891,-18.79677 -0.75172,-10.58818 -1.95507,-17.08649 -4.75642,-25.68556 -12.65067,-38.83266 -47.77995,-65.86043 -88.69181,-68.23772 -9.57676,-0.55648 -10.53731,-0.76103 -13.83702,-2.94667 -7.74473,-5.1299 -8.59666,-16.16067 -1.7505,-22.66539 4.24207,-4.03049 8.63557,-4.72926 21.55914,-3.42891 41.817,4.20756 78.26191,27.5348 99.56176,63.72634 11.19607,19.02374 17.72162,42.79322 17.13586,62.41782 -0.21162,7.08994 -0.303,7.49856 -2.32929,10.41636 -3.94213,5.67655 -11.54169,7.93714 -17.48281,5.2005 z"
     id="path891" />
  <path
     style="fill:#b3b3b3;stroke-width:0.653061"
     d="m 423.30371,268.44159 c -3.88587,-1.38587 -6.35193,-3.73615 -8.2579,-7.87016 -0.85988,-1.86507 -1.32606,-4.94719 -1.62982,-10.77551 -0.91731,-17.60074 -3.54057,-32.29887 -8.31112,-46.56717 -17.8813,-53.48143 -62.50718,-94.21451 -117.4314,-107.187636 -9.40704,-2.221947 -19.35666,-3.551516 -31.34694,-4.188894 -10.81093,-0.574687 -12.53513,-1.055254 -15.91596,-4.436084 -4.30189,-4.301891 -5.55822,-10.858087 -3.11055,-16.232463 1.52991,-3.359216 5.83336,-7.230978 9.0211,-8.116164 4.9414,-1.372146 20.2124,-0.515103 35.4748,1.990925 82.03754,13.470256 146.84947,79.492316 158.97621,161.944496 1.52426,10.36378 2.38861,27.02639 1.59413,30.73093 -1.82783,8.52291 -10.89997,13.61887 -19.06255,10.70773 z"
     id="path893" />
  <path
     style="fill:#b3b3b3;stroke-width:0.653061"
     d="m 330.44898,448.52364 c -35.96081,-4.77686 -67.94655,-16.03295 -103.5102,-36.42625 -62.10254,-35.6115 -120.23519,-98.71423 -148.91672,-161.64841 -15.420492,-33.83627 -22.838387,-64.3999 -22.838387,-94.1 0,-19.37067 1.623121,-30.35334 6.638851,-44.92105 C 68.151318,93.046547 75.081783,82.217483 90.086048,67.265306 105.82679,51.579207 109.8469,49.611345 126.04082,49.665277 c 16.58789,0.05524 17.55596,0.6833 49.20469,31.922602 21.34987,21.073671 34.06963,34.769681 36.46482,39.263511 3.06549,5.75145 4.77947,12.6523 4.77947,19.24317 0,6.94276 -1.20098,11.79983 -4.66891,18.88236 -2.54583,5.19933 -3.66481,6.48669 -19.99575,23.00451 l -17.29901,17.49698 2.80795,4.75059 c 7.76398,13.13539 23.6339,34.98637 34.7544,47.85263 9.988,11.55598 37.60424,38.37577 48.15642,46.7676 14.86636,11.82276 28.61344,21.49736 39.71848,27.95215 l 4.77969,2.77819 17.50402,-17.30597 c 17.20886,-17.01415 17.60729,-17.35553 23.62846,-20.24499 7.1593,-3.43562 11.04997,-4.35514 18.42755,-4.35514 6.51925,0 11.61375,1.22085 17.89861,4.28921 3.83376,1.87171 6.80981,4.26961 15.67347,12.62861 13.30561,12.54807 41.40843,41.03003 47.32045,47.95888 7.16587,8.39835 9.66151,15.22584 9.66151,26.43154 0,13.56901 -3.08795,20.01269 -15.97088,33.32666 -10.62275,10.97817 -20.43441,18.36631 -32.16942,24.22348 -12.38067,6.17942 -27.87251,10.52314 -41.98533,11.77218 -7.12017,0.63015 -30.08446,0.77727 -34.28253,0.21961 z m 41.79592,-30.16136 c 11.70243,-2.51433 22.20579,-6.74267 30.50659,-12.28103 7.6751,-5.12089 20.43441,-17.24714 22.54686,-21.42819 0.36295,-0.71837 0.70734,-3.43116 0.76532,-6.02843 l 0.10541,-4.7223 -5.83744,-6.37974 c -6.14759,-6.7187 -30.99356,-31.41334 -44.02902,-43.76086 l -7.69739,-7.29115 -4.54653,0.0144 c -4.27318,0.0135 -4.73638,0.16444 -7.70424,2.51041 -1.73676,1.37282 -11.43991,10.60843 -21.56259,20.52359 -10.12267,9.91515 -19.56276,18.7938 -20.97797,19.73035 -5.63959,3.7321 -11.62801,1.96999 -29.137,-8.57368 C 243.84989,326.0902 204.58009,290.372 174.33549,250.31363 c -11.23781,-14.88424 -21.79222,-31.28814 -28.23376,-43.88151 -2.56444,-5.01356 -3.03347,-6.50366 -3.00098,-9.53412 0.0212,-1.97551 0.5162,-4.51329 1.10004,-5.6395 0.58384,-1.12621 9.4707,-10.65683 19.74858,-21.17915 24.30895,-24.88708 23.40219,-23.75073 23.70283,-29.70425 l 0.23956,-4.74404 -7.70736,-8.06041 c -13.07049,-13.66922 -34.849,-35.57032 -42.22046,-42.458105 -8.01221,-7.486507 -9.88613,-8.308017 -16.03794,-7.030904 -3.37502,0.700649 -4.0275,1.187823 -10.92884,8.159936 C 99.3851,97.972675 93.665314,106.6529 89.265726,119.22068 c -2.298443,6.56569 -4.82132,17.72649 -4.640369,20.52824 0.06981,1.08095 -0.09979,2.49958 -0.376893,3.15251 -0.852329,2.0083 0.116482,30.89627 1.25967,37.56077 6.961305,40.58264 27.737096,83.96278 58.864216,122.90928 24.93488,31.19872 56.67454,59.51919 89.29136,79.67233 30.46596,18.82419 62.59967,31.24331 92.8669,35.89146 11.40864,1.75202 36.34787,1.43943 45.71429,-0.57299 z"
     id="path964" />
  <path
     style="fill:#b3b3b3;stroke-width:0.653061"
     d="m 358.09654,267.08743 c -1.67548,-0.87254 -3.6535,-2.43914 -4.3956,-3.48133 -1.63327,-2.29371 -3.33359,-8.51942 -3.33359,-12.20589 0,-1.481 -0.16099,-2.85372 -0.35776,-3.05048 -0.19676,-0.19676 -0.46837,-2.37636 -0.60357,-4.84354 -0.74391,-13.57486 -6.87554,-30.56251 -16.13744,-44.70872 -5.37335,-8.20703 -18.24023,-21.08925 -26.62153,-26.65326 -15.5636,-10.33207 -30.76931,-15.42425 -50.87926,-17.03878 -9.7704,-0.78442 -12.27405,-1.67503 -15.7101,-5.58848 -2.68655,-3.05981 -3.3264,-4.79799 -3.30865,-8.98804 0.0249,-5.88105 3.3437,-10.94423 8.61774,-13.14733 4.98091,-2.08064 21.39365,-0.87849 35.12302,2.57259 9.91786,2.49301 16.05129,4.71886 25.46938,9.24295 36.06558,17.32452 61.49408,49.6317 70.30976,89.32928 2.11513,9.52456 2.93267,29.02181 1.34561,32.09084 -3.7591,7.2693 -12.45083,10.1506 -19.51801,6.47019 z"
     id="path966" />
  <path
     style="fill:#b3b3b3;stroke-width:0.653061"
     d="m 422.53061,267.65136 c -6.27376,-3.30161 -7.90322,-6.8446 -8.8365,-19.21354 -1.4273,-18.91631 -4.39194,-34.44051 -9.15311,-47.92992 -13.91564,-39.42596 -43.03424,-72.46624 -80.62263,-91.48083 -20.68066,-10.461582 -39.34122,-15.427332 -64.97959,-17.291677 -12.18319,-0.885925 -14.34703,-1.38814 -17.35318,-4.027572 -7.875,-6.914348 -6.14365,-18.79793 3.44319,-23.633267 4.00412,-2.019561 24.11871,-1.066881 40.03243,1.896041 22.83433,4.251445 46.78152,13.560753 66.19615,25.733303 31.05477,19.470662 55.26421,46.213582 71.28519,78.745082 11.54236,23.43739 17.51649,45.70649 19.35925,72.16326 0.8688,12.47345 0.5382,15.70825 -2.01718,19.73767 -3.42909,5.40713 -12.11254,8.05982 -17.35402,5.30145 z"
     id="path968" />
</svg>
