<?xml version="1.0" encoding="UTF-8" standalone="no"?>
<svg
   height="30"
   viewBox="0 0 30 30"
   width="30"
   version="1.1"
   id="svg59529"
   sodipodi:docname="transporte1.svg"
   inkscape:version="1.2-beta (1b65182ce9, 2022-04-05)"
   xmlns:inkscape="http://www.inkscape.org/namespaces/inkscape"
   xmlns:sodipodi="http://sodipodi.sourceforge.net/DTD/sodipodi-0.dtd"
   xmlns="http://www.w3.org/2000/svg"
   xmlns:svg="http://www.w3.org/2000/svg">
  <defs
     id="defs59533" />
  <sodipodi:namedview
     id="namedview59531"
     pagecolor="#ffffff"
     bordercolor="#000000"
     borderopacity="0.25"
     inkscape:pageshadow="2"
     inkscape:pageopacity="0.0"
     inkscape:pagecheckerboard="0"
     inkscape:deskcolor="#d1d1d1"
     showgrid="false"
     inkscape:zoom="26.133333"
     inkscape:cx="14.980867"
     inkscape:cy="15"
     inkscape:window-width="1920"
     inkscape:window-height="1001"
     inkscape:window-x="-9"
     inkscape:window-y="-9"
     inkscape:window-maximized="1"
     inkscape:current-layer="svg59529" />
  <path
     d="M15.48 12c-.13.004-.255.058-.347.152l-2.638 2.63-1.625-1.62c-.455-.474-1.19.258-.715.712l1.983 1.978c.197.197.517.197.715 0l2.995-2.987c.33-.32.087-.865-.367-.865zM.5 16h3c.277 0 .5.223.5.5s-.223.5-.5.5h-3c-.277 0-.5-.223-.5-.5s.223-.5.5-.5zm0-4h3c.277 0 .5.223.5.5s-.223.5-.5.5h-3c-.277 0-.5-.223-.5-.5s.223-.5.5-.5zm0-4h3c.277 0 .5.223.5.5s-.223.5-.5.5h-3C.223 9 0 8.777 0 8.5S.223 8 .5 8zm24 11c-1.375 0-2.5 1.125-2.5 2.5s1.125 2.5 2.5 2.5 2.5-1.125 2.5-2.5-1.125-2.5-2.5-2.5zm0 1c.834 0 1.5.666 1.5 1.5s-.666 1.5-1.5 1.5-1.5-.666-1.5-1.5.666-1.5 1.5-1.5zm-13-1C10.125 19 9 20.125 9 21.5s1.125 2.5 2.5 2.5 2.5-1.125 2.5-2.5-1.125-2.5-2.5-2.5zm0 1c.834 0 1.5.666 1.5 1.5s-.666 1.5-1.5 1.5-1.5-.666-1.5-1.5.666-1.5 1.5-1.5zm-5-14C5.678 6 5 6.678 5 7.5v11c0 .822.678 1.5 1.5 1.5h2c.676.01.676-1.01 0-1h-2c-.286 0-.5-.214-.5-.5v-11c0-.286.214-.5.5-.5h13c.286 0 .5.214.5.5V19h-5.5c-.66 0-.648 1.01 0 1h7c.66 0 .654-1 0-1H21v-9h4.227L29 15.896V18.5c0 .286-.214.5-.5.5h-1c-.654 0-.654 1 0 1h1c.822 0 1.5-.678 1.5-1.5v-2.75c0-.095-.027-.19-.078-.27l-4-6.25c-.092-.143-.25-.23-.422-.23H21V7.5c0-.822-.678-1.5-1.5-1.5z"
     id="path59527" />
  <path
     style="fill:#f3a268;fill-opacity:1;stroke:#441868;stroke-width:0.0240689;stroke-dasharray:none;stroke-opacity:1"
     d="M 6.2284324,19.953289 C 5.7898738,19.866731 5.3530359,19.518607 5.1608163,19.102485 L 5.0510204,18.864796 V 12.991071 7.1173469 L 5.1544527,6.8966232 C 5.2865408,6.614748 5.5991302,6.30222 5.8928571,6.1583637 L 6.122449,6.0459184 h 6.868622 6.868623 l 0.248724,0.1195868 c 0.269119,0.129392 0.528838,0.364338 0.671506,0.607454 0.171742,0.2926607 0.208596,0.5440712 0.208596,1.4229937 v 0.8138024 l 2.331403,0.010428 c 2.296258,0.010271 2.33303,0.011633 2.439413,0.090361 0.06145,0.045475 0.990522,1.4558427 2.155205,3.2716837 l 2.047194,3.191751 0.01082,1.545194 c 0.0093,1.33004 0.0022,1.575132 -0.05094,1.760204 -0.155785,0.542293 -0.59936,0.952783 -1.157555,1.07122 -0.302752,0.06424 -1.279955,0.05606 -1.443023,-0.01207 -0.244526,-0.102169 -0.356763,-0.425267 -0.231723,-0.667066 0.10668,-0.206298 0.135561,-0.213947 0.885681,-0.234581 0.62936,-0.01731 0.710356,-0.02718 0.807422,-0.09838 0.237532,-0.17424 0.241811,-0.204479 0.240586,-1.699977 l -0.0011,-1.358418 -1.887773,-2.946429 -1.887774,-2.9464277 -2.128911,-0.00989 -2.128911,-0.00989 v 4.5347607 4.534759 h 0.339228 c 0.385006,0 0.505425,0.05887 0.604265,0.29543 0.108193,0.258943 -0.06128,0.582337 -0.333731,0.636827 -0.06703,0.01341 -1.704463,0.02437 -3.638733,0.02437 -3.804545,0 -3.701704,0.0054 -3.838424,-0.203215 -0.09913,-0.151291 -0.113831,-0.342631 -0.03852,-0.501335 0.125388,-0.264236 -0.02486,-0.252082 3.116231,-0.252082 h 2.834014 l -0.01005,-5.845026 c -0.0093,-5.4257424 -0.01473,-5.8535755 -0.07533,-5.9642271 -0.144,-0.2629517 0.38641,-0.244318 -6.954522,-0.244318 -7.3191438,0 -6.7708686,-0.01907 -6.9294521,0.2410159 -0.07319,0.120035 -0.074698,0.2361617 -0.074839,5.7608532 -1.568e-4,6.221406 -0.017008,5.802484 0.2396335,5.95772 0.1138088,0.06884 0.2200101,0.07639 1.3227544,0.09398 l 1.1990105,0.01913 0.1115762,0.124967 c 0.1440589,0.161346 0.1572241,0.438058 0.028621,0.601551 -0.1567021,0.199214 -0.239922,0.211353 -1.4177288,0.20679 -0.5952232,-0.0023 -1.1550672,-0.01857 -1.2440977,-0.03614 z"
     id="path59899" />
  <path
     style="fill:#f3a268;fill-opacity:1;stroke:#441868;stroke-width:0.0240689;stroke-dasharray:none;stroke-opacity:1"
     d="m 12.283163,15.916384 c -0.189165,-0.09707 -2.194611,-2.122623 -2.241139,-2.263606 -0.03311,-0.100331 -0.0267,-0.154303 0.03484,-0.293435 0.108269,-0.24476 0.33697,-0.369972 0.570457,-0.31232 0.06718,0.01659 0.420182,0.339559 0.976215,0.893163 l 0.870985,0.867179 1.32927,-1.323897 c 0.731099,-0.728143 1.371845,-1.352052 1.423882,-1.386463 0.134762,-0.08912 0.388808,-0.08053 0.513237,0.01734 0.201585,0.158567 0.266166,0.4013 0.159954,0.6012 -0.05963,0.11222 -3.041578,3.095165 -3.196598,3.197662 -0.118603,0.07842 -0.292043,0.07967 -0.441103,0.0032 z"
     id="path59901" />
  <path
     style="fill:#f3a268;fill-opacity:1;stroke:#441868;stroke-width:0.0240689;stroke-dasharray:none;stroke-opacity:1"
     d="m 10.894727,23.89597 c -0.826581,-0.216563 -1.515506,-0.8772 -1.7633259,-1.690919 -0.1846804,-0.6064 -0.1337389,-1.196053 0.1546862,-1.79051 0.1270789,-0.261916 0.2218938,-0.389311 0.4868822,-0.654188 0.3571465,-0.356996 0.6913775,-0.55361 1.1311155,-0.66539 0.29279,-0.07443 0.896489,-0.07443 1.189279,0 1.259465,0.320151 2.087452,1.605346 1.837813,2.852638 -0.102503,0.512145 -0.312945,0.904295 -0.685522,1.277441 -0.642396,0.643379 -1.510488,0.891123 -2.350928,0.670928 z m 1.187416,-0.991546 c 0.445869,-0.17148 0.817249,-0.641428 0.911614,-1.153565 0.121238,-0.657982 -0.227537,-1.327017 -0.844522,-1.619996 -0.228862,-0.108676 -0.28081,-0.118108 -0.650511,-0.118108 -0.371437,0 -0.420572,0.009 -0.65051,0.119587 -0.445557,0.214224 -0.7252,0.57018 -0.827164,1.052893 -0.1631468,0.772364 0.264073,1.511393 1.018491,1.761844 0.280215,0.09303 0.738577,0.07427 1.042602,-0.04265 z"
     id="path59903" />
  <path
     style="fill:#f3a268;fill-opacity:1;stroke:#441868;stroke-width:0.0240689;stroke-dasharray:none;stroke-opacity:1"
     d="M 0.26014854,8.8982328 C 0.02196498,8.7530038 -0.04054535,8.4587513 0.11602327,8.2197973 0.24450398,8.023711 0.31135868,8.0165702 2.0172659,8.0167247 3.51554,8.0168605 3.6032399,8.0207097 3.7192219,8.0914285 3.961156,8.2389451 4.0339691,8.4904746 3.9062399,8.7374753 3.7842937,8.9732938 3.7848184,8.9732289 2.0012625,8.9730713 0.4633963,8.9729353 0.37654202,8.9692021 0.26014854,8.8982328 Z"
     id="path59905" />
  <path
     style="fill:#f3a268;fill-opacity:1;stroke:#441868;stroke-width:0.0240689;stroke-dasharray:none;stroke-opacity:1"
     d="m 0.28934937,12.921151 c -0.14062608,-0.07542 -0.27021672,-0.27649 -0.27021672,-0.419265 0,-0.122896 0.09402787,-0.292495 0.21485507,-0.387538 0.0994355,-0.07822 0.13638528,-0.07991 1.74373618,-0.07991 1.7756018,0 1.7845534,9.66e-4 1.9196549,0.207157 0.091664,0.139897 0.08172,0.409336 -0.019875,0.538493 -0.1624577,0.206531 -0.2024706,0.210982 -1.8966422,0.210982 -1.43886813,0 -1.57134828,-0.0055 -1.69151223,-0.06992 z"
     id="path59907" />
  <path
     style="fill:#f3a268;fill-opacity:1;stroke:#441868;stroke-width:0.0240689;stroke-dasharray:none;stroke-opacity:1"
     d="M 0.28813834,16.92171 C 0.23615524,16.895406 0.1528812,16.813868 0.1030849,16.740514 -0.0541627,16.508875 0.04683965,16.177298 0.30786974,16.068232 c 0.19581449,-0.08182 3.22454546,-0.07964 3.38325386,0.0024 0.2517435,0.130182 0.3423523,0.418213 0.2112898,0.67166 -0.1176413,0.227493 -0.1251597,0.228394 -1.9011509,0.227775 -1.21789446,-4.24e-4 -1.64200821,-0.0124 -1.71312416,-0.04839 z"
     id="path59909" />
  <path
     style="fill:#f3a268;fill-opacity:1;stroke:#441868;stroke-width:0.0240689;stroke-dasharray:none;stroke-opacity:1"
     d="m 23.954082,23.916521 c -0.538741,-0.145457 -0.882425,-0.349339 -1.25545,-0.744765 -1.223759,-1.297249 -0.70707,-3.375015 0.997482,-4.011186 0.347342,-0.129635 1.018121,-0.162331 1.386794,-0.0676 0.46032,0.118283 0.790338,0.310662 1.14883,0.669695 0.511429,0.5122 0.738421,1.04863 0.737315,1.742434 -0.0018,1.12205 -0.776524,2.112682 -1.871202,2.392653 -0.344567,0.08813 -0.855808,0.09651 -1.143769,0.01877 z m 0.891253,-0.939689 c 0.435749,-0.100514 0.845872,-0.429956 1.033376,-0.830088 0.09275,-0.197936 0.103432,-0.26418 0.103432,-0.641642 0,-0.376583 -0.0108,-0.443965 -0.102553,-0.639722 -0.143204,-0.305533 -0.411911,-0.579224 -0.715329,-0.728596 -0.237902,-0.117119 -0.275432,-0.124029 -0.67366,-0.124029 -0.388812,0 -0.439576,0.0088 -0.650481,0.112139 -0.446336,0.218799 -0.744253,0.622997 -0.830685,1.127029 -0.18256,1.064606 0.779572,1.968571 1.8359,1.724909 z"
     id="path59911" />
</svg>
