<?xml version="1.0" encoding="UTF-8" standalone="no"?>
<svg
   viewBox="0 0 24 24"
   version="1.1"
   id="svg21325"
   sodipodi:docname="truck-check-outline1.svg"
   inkscape:version="1.2-beta (1b65182ce9, 2022-04-05)"
   xmlns:inkscape="http://www.inkscape.org/namespaces/inkscape"
   xmlns:sodipodi="http://sodipodi.sourceforge.net/DTD/sodipodi-0.dtd"
   xmlns="http://www.w3.org/2000/svg"
   xmlns:svg="http://www.w3.org/2000/svg">
  <defs
     id="defs21329" />
  <sodipodi:namedview
     id="namedview21327"
     pagecolor="#ffffff"
     bordercolor="#000000"
     borderopacity="0.25"
     inkscape:pageshadow="2"
     inkscape:pageopacity="0.0"
     inkscape:pagecheckerboard="0"
     inkscape:deskcolor="#d1d1d1"
     showgrid="false"
     inkscape:zoom="32.666667"
     inkscape:cx="11.984694"
     inkscape:cy="12"
     inkscape:window-width="1920"
     inkscape:window-height="1001"
     inkscape:window-x="-9"
     inkscape:window-y="-9"
     inkscape:window-maximized="1"
     inkscape:current-layer="svg21325" />
  <path
     d="M18 18.5C18.83 18.5 19.5 17.83 19.5 17C19.5 16.17 18.83 15.5 18 15.5C17.17 15.5 16.5 16.17 16.5 17C16.5 17.83 17.17 18.5 18 18.5M19.5 9.5H17V12H21.46L19.5 9.5M6 18.5C6.83 18.5 7.5 17.83 7.5 17C7.5 16.17 6.83 15.5 6 15.5C5.17 15.5 4.5 16.17 4.5 17C4.5 17.83 5.17 18.5 6 18.5M20 8L23 12V17H21C21 18.66 19.66 20 18 20C16.34 20 15 18.66 15 17H9C9 18.66 7.66 20 6 20C4.34 20 3 18.66 3 17H1V6C1 4.89 1.89 4 3 4H17V8H20M3 6V15H3.76C4.31 14.39 5.11 14 6 14C6.89 14 7.69 14.39 8.24 15H15V6H3M5 10.5L6.5 9L8 10.5L11.5 7L13 8.5L8 13.5L5 10.5Z"
     id="path21323" />
  <path
     style="fill:#d45500;fill-opacity:1;stroke-width:0.0306122"
     d="M 5.5561224,19.95524 C 5.2961688,19.905957 4.9632741,19.803957 4.7681327,19.713796 3.7858061,19.259933 3.1075903,18.292581 3.0258133,17.228691 L 3.0062738,16.97449 H 2.015892 1.0255102 v -5.626222 c 0,-6.2715149 -0.017737,-5.7661113 0.2193516,-6.250293 C 1.4216675,4.7369026 1.7369026,4.4216675 2.097975,4.2448618 2.5851662,4.0062996 1.9064042,4.0255102 9.8482684,4.0255102 H 16.97449 V 6.0153061 8.005102 l 1.507653,0.00132 1.507653,0.00132 1.492347,1.993645 1.492347,1.993644 v 2.489729 2.489728 h -0.990382 -0.990382 l -0.01954,0.254202 c -0.09633,1.253255 -0.991221,2.322486 -2.226233,2.659951 -0.219401,0.05995 -0.33169,0.07054 -0.747954,0.07054 -0.416264,0 -0.528553,-0.01059 -0.747954,-0.07054 -1.232885,-0.336884 -2.130066,-1.408855 -2.226233,-2.659951 l -0.01954,-0.2542 H 12 8.993726 l -0.01954,0.254201 c -0.095783,1.246101 -0.9902978,2.320935 -2.2097951,2.655251 -0.1863404,0.05108 -0.3488525,0.06912 -0.6878608,0.07635 -0.2441326,0.0052 -0.4783163,0.0029 -0.5204082,-0.005 z M 6.396889,18.458176 C 6.6619108,18.389147 6.8642146,18.2696 7.0762772,18.056706 7.6444139,17.486341 7.6629064,16.582349 7.1186201,15.986813 6.8096296,15.648728 6.4644077,15.497817 6,15.497817 c -0.4586431,0 -0.7963022,0.14518 -1.1106171,0.477522 -0.525814,0.555971 -0.5365372,1.447141 -0.024409,2.028512 0.3696943,0.419679 0.9753349,0.599296 1.5319151,0.454325 z m 12,0 c 0.265022,-0.06903 0.467326,-0.188576 0.679388,-0.40147 0.568137,-0.570365 0.586629,-1.474357 0.04234,-2.069893 C 18.80963,15.648728 18.464408,15.497817 18,15.497817 c -0.458643,0 -0.796302,0.14518 -1.110617,0.477522 -0.525814,0.555971 -0.536537,1.447141 -0.02441,2.028512 0.369694,0.419679 0.975335,0.599296 1.531915,0.454325 z M 3.9582524,14.829905 C 4.5455783,14.291727 5.2207322,14.025845 6,14.025845 c 0.5027899,0 0.8736407,0.0864 1.3316327,0.310255 0.2455389,0.120011 0.6217255,0.389669 0.7942705,0.569349 l 0.1054947,0.109857 h 3.3919541 3.391954 V 10.5 5.9846939 H 9 2.9846939 V 10.5 15.015306 H 3.3703066 3.7559193 Z M 21.469388,11.990427 c -0.0056,-0.01368 -0.449739,-0.585367 -0.986948,-1.270408 L 19.505696,9.4744898 H 18.240093 16.97449 v 1.2704082 1.270408 h 2.252551 c 1.238903,0 2.247959,-0.0112 2.242347,-0.02488 z"
     id="path21763" />
  <path
     style="fill:#f08537;fill-opacity:1;stroke-width:0.0306122"
     d="M 6.5125757,11.976863 5.0355922,10.499644 5.7703496,9.7653647 6.5051069,9.0310857 7.2551717,9.7806819 8.0052366,10.530278 9.7578894,8.777824 11.510542,7.0253699 l 0.73437,0.7348482 0.73437,0.7348482 -2.479366,2.4795077 c -1.3636514,1.363729 -2.486339,2.479508 -2.4948614,2.479508 -0.00852,0 -0.680138,-0.664749 -1.4924789,-1.477219 z"
     id="path21765" />
  <path
     style="fill:#f08537;fill-opacity:1;stroke-width:0.0306122"
     d="M 5.25,19.866609 C 4.9502195,19.777012 4.5486291,19.592848 4.3399515,19.449274 4.1050041,19.287626 3.7367276,18.917083 3.5670036,18.671568 3.3017518,18.287868 3.1105792,17.803914 3.0628925,17.395408 3.0535567,17.315434 3.0381865,17.18801 3.0287365,17.112245 L 3.0115547,16.97449 H 2.0136954 1.0158362 l 0.019133,-5.517857 c 0.0124,-3.5760322 0.030563,-5.6137467 0.05161,-5.7903347 C 1.1574196,5.0719443 1.5549001,4.542981 2.1660739,4.2297172 2.3474706,4.1367403 2.4406031,4.110365 2.6785714,4.0845768 2.8641864,4.0644621 5.502525,4.0467105 9.9719388,4.0355047 L 16.97449,4.0179478 V 6.006597 7.9952461 l 0.877429,0.020234 c 0.482586,0.011129 1.161632,0.020234 1.50899,0.020234 h 0.631561 l 1.49101,1.9957849 1.49101,1.995785 v 2.473603 2.473603 h -0.993023 -0.993022 l -0.01789,0.145408 c -0.07315,0.594478 -0.155368,0.885609 -0.355105,1.257368 -0.309982,0.576951 -0.799434,1.033628 -1.418969,1.323952 -0.38727,0.181481 -0.687337,0.242231 -1.19648,0.242231 -0.509143,0 -0.80921,-0.06075 -1.19648,-0.242231 -0.345625,-0.161965 -0.566561,-0.313123 -0.843897,-0.577368 -0.486018,-0.463079 -0.825376,-1.117188 -0.89673,-1.728442 -0.0093,-0.07997 -0.02471,-0.207398 -0.03416,-0.283163 L 15.011555,16.97449 H 12 8.9884454 l -0.017182,0.137755 c -0.00945,0.07576 -0.02482,0.203189 -0.034156,0.283163 -0.067835,0.581102 -0.3657578,1.180967 -0.8226535,1.656402 -0.2740136,0.285133 -0.517076,0.459294 -0.8792033,0.629974 -0.4362732,0.205627 -0.577398,0.235273 -1.1893322,0.249841 -0.5050277,0.01202 -0.5506191,0.0083 -0.7959184,-0.06502 z m 1.1929561,-1.412821 c 0.2485534,-0.0685 0.3750337,-0.14276 0.5973377,-0.350714 0.1536918,-0.143771 0.230554,-0.248254 0.3294603,-0.447856 0.121728,-0.245657 0.1296563,-0.278007 0.1406023,-0.573709 C 7.5289699,16.578674 7.397426,16.241537 7.0486145,15.898099 6.8247386,15.677672 6.5634517,15.548574 6.2454808,15.501282 5.6333351,15.410236 5.063738,15.654853 4.7323558,16.151101 4.5406769,16.438143 4.4735734,16.696555 4.4919367,17.07694 c 0.01707,0.353596 0.061144,0.489208 0.2554549,0.786014 0.3556011,0.543174 1.0237228,0.775987 1.6955645,0.590834 z m 11.9999999,0 c 0.248553,-0.0685 0.375034,-0.14276 0.597338,-0.350714 0.153692,-0.143771 0.230554,-0.248254 0.32946,-0.447856 0.121728,-0.245657 0.129656,-0.278007 0.140602,-0.573709 0.01861,-0.502835 -0.11293,-0.839972 -0.461742,-1.18341 -0.223875,-0.220427 -0.485162,-0.349525 -0.803133,-0.396817 -0.612146,-0.09105 -1.181743,0.153571 -1.513125,0.649819 -0.191679,0.287042 -0.258783,0.545454 -0.240419,0.925839 0.01707,0.353596 0.06114,0.489208 0.255455,0.786014 0.355601,0.543174 1.023722,0.775987 1.695564,0.590834 z M 3.9697716,14.846773 c 0.3742743,-0.346512 0.8487032,-0.605136 1.3299124,-0.724971 0.3891569,-0.09691 1.0494073,-0.09628 1.4197038,0.0014 0.4691853,0.123711 1.098701,0.484026 1.3909313,0.796124 l 0.089911,0.09602 h 3.4075379 3.407538 V 10.5 5.9846939 H 9 2.9846939 V 10.5 15.015306 H 3.3862146 3.7877353 Z M 21.464101,11.971162 c -0.0093,-0.02428 -0.448095,-0.595963 -0.975062,-1.270408 L 19.530917,9.4744898 H 18.252703 16.97449 v 1.2704082 1.270408 h 2.253275 c 1.950078,0 2.250996,-0.0059 2.236336,-0.04414 z"
     id="path22838" />
</svg>
