<?xml version="1.0" encoding="UTF-8" standalone="no"?>
<svg
   viewBox="0 0 448 512"
   version="1.1"
   id="svg11185"
   sodipodi:docname="youtube2.svg"
   inkscape:version="1.2-beta (1b65182ce9, 2022-04-05)"
   xmlns:inkscape="http://www.inkscape.org/namespaces/inkscape"
   xmlns:sodipodi="http://sodipodi.sourceforge.net/DTD/sodipodi-0.dtd"
   xmlns="http://www.w3.org/2000/svg"
   xmlns:svg="http://www.w3.org/2000/svg">
  <defs
     id="defs11189" />
  <sodipodi:namedview
     id="namedview11187"
     pagecolor="#ffffff"
     bordercolor="#000000"
     borderopacity="0.25"
     inkscape:pageshadow="2"
     inkscape:pageopacity="0.0"
     inkscape:pagecheckerboard="0"
     inkscape:deskcolor="#d1d1d1"
     showgrid="false"
     inkscape:zoom="1.5332031"
     inkscape:cx="208.38726"
     inkscape:cy="255.67389"
     inkscape:window-width="1920"
     inkscape:window-height="1001"
     inkscape:window-x="-9"
     inkscape:window-y="-9"
     inkscape:window-maximized="1"
     inkscape:current-layer="svg11185" />
  <!--! Font Awesome Pro 6.1.1 by @fontawesome - https://fontawesome.com License - https://fontawesome.com/license (Commercial License) Copyright 2022 Fonticons, Inc. -->
  <path
     d="M186.8 202.1l95.2 54.1-95.2 54.1V202.1zM448 80v352c0 26.5-21.5 48-48 48H48c-26.5 0-48-21.5-48-48V80c0-26.5 21.5-48 48-48h352c26.5 0 48 21.5 48 48zm-42 176.3s0-59.6-7.6-88.2c-4.2-15.8-16.5-28.2-32.2-32.4C337.9 128 224 128 224 128s-113.9 0-142.2 7.7c-15.7 4.2-28 16.6-32.2 32.4-7.6 28.5-7.6 88.2-7.6 88.2s0 59.6 7.6 88.2c4.2 15.8 16.5 27.7 32.2 31.9C110.1 384 224 384 224 384s113.9 0 142.2-7.7c15.7-4.2 28-16.1 32.2-31.9 7.6-28.5 7.6-88.1 7.6-88.1z"
     id="path11183" />
  <path
     style="fill:#000080;stroke-width:0.652229"
     d="M 38.807643,478.69734 C 24.444588,475.60208 11.82848,466.00906 5.6413751,453.47839 0.14219121,442.34097 0.6522293,462.52909 0.6522293,256 0.6522293,81.909532 0.7124407,72.177813 1.8144317,68.157962 5.6949173,54.002698 16.811947,41.313986 30.044118,35.937274 39.608807,32.050792 27.148676,32.28535 224.04076,32.28535 c 195.13548,0 184.26753,-0.188419 193.31286,3.351494 11.39041,4.457665 21.88461,14.829962 26.66836,26.35859 3.62462,8.735185 3.40732,-3.63763 3.40732,194.004566 0,197.64219 0.2173,185.26938 -3.40732,194.00457 -4.70377,11.33585 -14.93124,21.56678 -26.09366,26.10248 -9.44402,3.83745 2.85748,3.61239 -194.34923,3.55575 C 71.38634,479.61909 42.381635,479.46753 38.807643,478.69734 Z M 288.93758,383.16093 c 35.81028,-1.18294 62.03134,-3.25637 74.35414,-5.87956 16.27865,-3.46528 29.53442,-14.97746 34.4816,-29.94608 10.32555,-31.2419 11.15614,-138.46445 1.37326,-177.27861 -4.74776,-18.837 -17.46934,-31.37061 -35.85486,-35.32506 -34.13324,-7.34156 -175.0598,-9.38252 -248.96994,-3.60569 -15.407756,1.20427 -25.571791,2.53156 -32.025261,4.18208 -16.021895,4.09771 -28.961934,17.02889 -33.084432,33.06179 -9.486749,36.89511 -9.775028,134.60875 -0.512531,173.72447 3.898209,16.46221 15.254045,29.04379 30.546304,33.84347 13.569578,4.25899 50.70539,6.90531 114.46624,8.15693 16.77407,0.32927 73.96848,-0.23155 95.22548,-0.93374 z"
     id="path11245" />
  <path
     style="fill:#2c2c65;stroke-width:0.652229;fill-opacity:1"
     d="m 186.86369,256.022 v -53.46081 l 2.11975,1.22779 c 1.16586,0.67528 22.07796,12.56794 46.47134,26.42813 24.39337,13.86019 44.57985,25.4276 44.85883,25.70536 0.40226,0.40049 -92.05729,53.56033 -93.15611,53.56033 -0.16159,0 -0.29381,-24.05736 -0.29381,-53.4608 z"
     id="path11247" />
  <path
     style="fill:#2c2c65;fill-opacity:1;stroke-width:0.652229"
     d="m 187.21972,266.24601 c -0.24886,-23.39225 -0.3574,-47.15887 -0.24119,-52.81471 l 0.21128,-10.28336 43.69936,24.8973 c 24.03465,13.69352 44.80998,25.54101 46.1674,26.32776 1.90489,1.10406 2.27695,1.58842 1.63057,2.1227 -1.82604,1.50939 -81.42709,47.3907 -88.32111,50.90748 l -2.69385,1.37418 z"
     id="path19478" />
  <path
     style="fill:#2c2c65;fill-opacity:1;stroke-width:0.652229"
     d="M 39.975755,478.38095 C 34.97798,477.79843 27.248088,474.68072 21.744735,471.0278 12.286814,464.74999 3.6456402,452.32596 2.1308254,442.8275 1.4780259,438.7342 1.3044586,399.01411 1.3044586,253.7172 V 69.788535 L 2.9712368,65.512442 C 8.3564316,51.696813 18.255684,41.194719 30.875906,35.908444 c 2.986202,-1.25084 6.246866,-1.93732 11.740128,-2.471695 10.777829,-1.048447 352.054826,-1.047407 362.849456,0.0011 5.49573,0.533815 8.75259,1.219189 11.74013,2.470589 11.97445,5.015778 22.09643,15.384772 27.0924,27.753564 1.42245,3.521608 1.69416,5.527327 2.18938,16.161453 0.73744,15.835673 0.73744,336.517405 0,352.353075 -0.49522,10.63412 -0.76693,12.63984 -2.18938,16.16145 -2.72281,6.74103 -5.74526,11.21015 -11.55053,17.07912 -4.76087,4.81311 -6.52404,6.09422 -12.39236,9.00416 -6.55343,3.24968 -7.15784,3.41851 -14.34239,4.00629 -9.08339,0.74312 -359.644435,0.69848 -366.036985,-0.0466 z M 296.76433,383.17514 c 8.96815,-0.3713 22.7628,-1.11286 30.65478,-1.6479 38.29804,-2.59644 47.73928,-5.28395 59.39304,-16.90665 8.87933,-8.85566 11.84775,-15.47538 14.63464,-32.63588 3.60074,-22.1718 4.822,-45.87554 4.37742,-84.96235 -0.35404,-31.12692 -0.7961,-39.31425 -3.14024,-58.16057 -2.77753,-22.33059 -6.63831,-32.27862 -16.25263,-41.87793 -8.40907,-8.39597 -15.99082,-11.75218 -31.43938,-13.91729 -45.88891,-6.4313 -177.53174,-7.47178 -243.46075,-1.92427 -30.90115,2.60014 -39.420693,5.34586 -50.279005,16.20417 -8.510752,8.51075 -11.802784,15.78311 -14.58962,32.2296 -3.29917,19.47003 -4.824905,44.04224 -4.806052,77.40227 0.02276,40.27766 2.769591,72.78299 7.450913,88.17234 4.897809,16.10102 17.420046,28.2798 32.723446,31.82591 13.644011,3.16159 39.757208,5.24538 85.918148,6.85616 19.91,0.69475 106.87455,0.25079 128.81529,-0.65761 z"
     id="path19480" />
  <path
     style="fill:#2c2c65;fill-opacity:1;stroke-width:0.652229"
     d="m 187.29544,280.31095 c -0.60383,-39.77305 -0.53867,-77.29133 0.13379,-77.03282 0.31105,0.11958 21.14169,11.95514 46.29032,26.30125 35.71952,20.37632 45.55031,26.25488 44.92746,26.86548 -1.33654,1.31024 -80.52625,47.02845 -88.25348,50.95095 l -2.66634,1.3535 z"
     id="path19482" />
</svg>
